Mekorot-Vilna.ufo
<glyph name="zero" format="2">
  <advance width="500"/>
  <unicode hex="0030"/>
  <outline>
    <contour>
      <point x="250" y="688" type="curve" smooth="yes"/>
      <point x="379" y="688"/>
      <point x="476" y="537"/>
      <point x="476" y="337" type="curve" smooth="yes"/>
      <point x="476" y="136"/>
      <point x="380" y="-13"/>
      <point x="251" y="-13" type="curve" smooth="yes"/>
      <point x="118" y="-13"/>
      <point x="24" y="134"/>
      <point x="24" y="340" type="curve" smooth="yes"/>
      <point x="24" y="423"/>
      <point x="46" y="517"/>
      <point x="78" y="572" type="curve" smooth="yes"/>
      <point x="119" y="644"/>
      <point x="185" y="688"/>
    </contour>
    <contour>
      <point x="318" y="222" type="curve" smooth="yes"/>
      <point x="318" y="451" type="line" smooth="yes"/>
      <point x="318" y="598"/>
      <point x="298" y="660"/>
      <point x="249" y="660" type="curve" smooth="yes"/>
      <point x="201" y="660"/>
      <point x="182" y="602"/>
      <point x="182" y="451" type="curve" smooth="yes"/>
      <point x="182" y="222" type="line" smooth="yes"/>
      <point x="182" y="74"/>
      <point x="201" y="15"/>
      <point x="251" y="15" type="curve" smooth="yes"/>
      <point x="274" y="15"/>
      <point x="290" y="29"/>
      <point x="301" y="58" type="curve" smooth="yes"/>
      <point x="310" y="85"/>
      <point x="318" y="163"/>
    </contour>
  </outline>
</glyph>
<glyph name="five" format="2">
  <advance width="500"/>
  <unicode hex="0035"/>
  <outline>
    <contour>
      <point x="149" y="549" type="line"/>
      <point x="127" y="468" type="line"/>
      <point x="209" y="463"/>
      <point x="240" y="459"/>
      <point x="278" y="448" type="curve" smooth="yes"/>
      <point x="387" y="417"/>
      <point x="451" y="337"/>
      <point x="451" y="233" type="curve" smooth="yes"/>
      <point x="451" y="92"/>
      <point x="334" y="-8"/>
      <point x="169" y="-8" type="curve" smooth="yes"/>
      <point x="80" y="-8"/>
      <point x="22" y="27"/>
      <point x="22" y="80" type="curve" smooth="yes"/>
      <point x="22" y="115"/>
      <point x="48" y="140"/>
      <point x="84" y="140" type="curve" smooth="yes"/>
      <point x="110" y="140"/>
      <point x="140" y="127"/>
      <point x="183" y="95" type="curve" smooth="yes"/>
      <point x="223" y="65"/>
      <point x="250" y="53"/>
      <point x="273" y="53" type="curve" smooth="yes"/>
      <point x="329" y="53"/>
      <point x="373" y="97"/>
      <point x="373" y="153" type="curve" smooth="yes"/>
      <point x="373" y="219"/>
      <point x="320" y="276"/>
      <point x="231" y="304" type="curve" smooth="yes"/>
      <point x="187" y="318"/>
      <point x="146" y="324"/>
      <point x="51" y="331" type="curve"/>
      <point x="148" y="676" type="line"/>
      <point x="470" y="676" type="line"/>
      <point x="427" y="549" type="line"/>
    </contour>
  </outline>
</glyph>
<glyph name="eight" format="2">
  <advance width="500"/>
  <unicode hex="0038"/>
  <outline>
    <contour>
      <point x="178" y="324" type="curve"/>
      <point x="79" y="383"/>
      <point x="39" y="438"/>
      <point x="39" y="513" type="curve" smooth="yes"/>
      <point x="39" y="618"/>
      <point x="128" y="688"/>
      <point x="263" y="688" type="curve" smooth="yes"/>
      <point x="382" y="688"/>
      <point x="458" y="632"/>
      <point x="458" y="543" type="curve" smooth="yes"/>
      <point x="458" y="479"/>
      <point x="418" y="438"/>
      <point x="322" y="404" type="curve"/>
      <point x="429" y="336"/>
      <point x="472" y="274"/>
      <point x="472" y="187" type="curve" smooth="yes"/>
      <point x="472" y="67"/>
      <point x="379" y="-13"/>
      <point x="240" y="-13" type="curve" smooth="yes"/>
      <point x="113" y="-13"/>
      <point x="28" y="55"/>
      <point x="28" y="157" type="curve" smooth="yes"/>
      <point x="28" y="201"/>
      <point x="43" y="239"/>
      <point x="72" y="267" type="curve" smooth="yes"/>
      <point x="98" y="292"/>
      <point x="121" y="305"/>
    </contour>
    <contour>
      <point x="298" y="422" type="curve"/>
      <point x="331" y="466"/>
      <point x="339" y="489"/>
      <point x="339" y="536" type="curve" smooth="yes"/>
      <point x="339" y="614"/>
      <point x="307" y="659"/>
      <point x="251" y="659" type="curve" smooth="yes"/>
      <point x="204" y="659"/>
      <point x="168" y="623"/>
      <point x="168" y="576" type="curve" smooth="yes"/>
      <point x="168" y="520"/>
      <point x="214" y="465"/>
    </contour>
    <contour>
      <point x="200" y="306" type="curve"/>
      <point x="160" y="247"/>
      <point x="149" y="216"/>
      <point x="149" y="161" type="curve" smooth="yes"/>
      <point x="149" y="72"/>
      <point x="185" y="19"/>
      <point x="246" y="19" type="curve" smooth="yes"/>
      <point x="300" y="19"/>
      <point x="333" y="60"/>
      <point x="333" y="127" type="curve" smooth="yes"/>
      <point x="333" y="201"/>
      <point x="309" y="233"/>
    </contour>
  </outline>
</glyph>
<glyph name="nine" format="2">
  <advance width="500"/>
  <unicode hex="0039"/>
  <outline>
    <contour>
      <point x="31" y="-13" type="curve"/>
      <point x="31" y="13" type="line"/>
      <point x="175" y="42"/>
      <point x="256" y="121"/>
      <point x="299" y="273" type="curve"/>
      <point x="272" y="259"/>
      <point x="246" y="254"/>
      <point x="208" y="254" type="curve" smooth="yes"/>
      <point x="99" y="254"/>
      <point x="26" y="334"/>
      <point x="26" y="452" type="curve" smooth="yes"/>
      <point x="26" y="589"/>
      <point x="116" y="688"/>
      <point x="241" y="688" type="curve" smooth="yes"/>
      <point x="381" y="688"/>
      <point x="473" y="575"/>
      <point x="473" y="402" type="curve" smooth="yes"/>
      <point x="473" y="275"/>
      <point x="419" y="168"/>
      <point x="317" y="91" type="curve" smooth="yes"/>
      <point x="239" y="32"/>
      <point x="171" y="7"/>
    </contour>
    <contour>
      <point x="309" y="328" type="curve" smooth="yes"/>
      <point x="312" y="354" type="line" smooth="yes"/>
      <point x="315" y="399"/>
      <point x="317" y="431"/>
      <point x="317" y="458" type="curve" smooth="yes"/>
      <point x="317" y="529"/>
      <point x="307" y="599"/>
      <point x="292" y="627" type="curve" smooth="yes"/>
      <point x="281" y="650"/>
      <point x="264" y="661"/>
      <point x="239" y="661" type="curve" smooth="yes"/>
      <point x="190" y="661"/>
      <point x="178" y="631"/>
      <point x="178" y="515" type="curve" smooth="yes"/>
      <point x="178" y="358"/>
      <point x="201" y="299"/>
      <point x="263" y="299" type="curve" smooth="yes"/>
      <point x="278" y="299"/>
      <point x="297" y="303"/>
      <point x="304" y="308" type="curve" smooth="yes"/>
      <point x="307" y="310"/>
      <point x="308" y="315"/>
    </contour>
  </outline>
</glyph>
<glyph name="C" format="2">
  <advance width="722"/>
  <unicode hex="0043"/>
  <outline>
    <contour>
      <point x="657" y="152" type="curve"/>
      <point x="687" y="127" type="line"/>
      <point x="642" y="77"/>
      <point x="620" y="57"/>
      <point x="588" y="35" type="curve" smooth="yes"/>
      <point x="533" y="-2"/>
      <point x="474" y="-19"/>
      <point x="403" y="-19" type="curve" smooth="yes"/>
      <point x="196" y="-19"/>
      <point x="49" y="127"/>
      <point x="49" y="333" type="curve" smooth="yes"/>
      <point x="49" y="537"/>
      <point x="198" y="691"/>
      <point x="397" y="691" type="curve" smooth="yes"/>
      <point x="445" y="691"/>
      <point x="493" y="680"/>
      <point x="552" y="656" type="curve" smooth="yes"/>
      <point x="574" y="646"/>
      <point x="589" y="642"/>
      <point x="598" y="642" type="curve" smooth="yes"/>
      <point x="617" y="642"/>
      <point x="628" y="653"/>
      <point x="642" y="688" type="curve"/>
      <point x="669" y="688" type="line"/>
      <point x="669" y="454" type="line"/>
      <point x="644" y="454" type="line"/>
      <point x="609" y="530"/>
      <point x="586" y="563"/>
      <point x="543" y="602" type="curve" smooth="yes"/>
      <point x="500" y="640"/>
      <point x="457" y="658"/>
      <point x="410" y="658" type="curve" smooth="yes"/>
      <point x="290" y="658"/>
      <point x="226" y="548"/>
      <point x="226" y="341" type="curve" smooth="yes"/>
      <point x="226" y="241"/>
      <point x="240" y="169"/>
      <point x="269" y="116" type="curve" smooth="yes"/>
      <point x="298" y="64"/>
      <point x="361" y="29"/>
      <point x="427" y="29" type="curve" smooth="yes"/>
      <point x="455" y="29"/>
      <point x="488" y="35"/>
      <point x="517" y="47" type="curve" smooth="yes"/>
      <point x="566" y="66"/>
      <point x="598" y="90"/>
    </contour>
  </outline>
</glyph>
<glyph name="I" format="2">
  <advance width="389"/>
  <unicode hex="0049"/>
  <outline>
    <contour>
      <point x="113" y="96" type="curve" smooth="yes"/>
      <point x="113" y="580" type="line" smooth="yes"/>
      <point x="113" y="631"/>
      <point x="92" y="646"/>
      <point x="20" y="651" type="curve"/>
      <point x="20" y="676" type="line"/>
      <point x="370" y="676" type="line"/>
      <point x="370" y="651" type="line"/>
      <point x="296" y="648"/>
      <point x="275" y="632"/>
      <point x="275" y="580" type="curve" smooth="yes"/>
      <point x="275" y="96" type="line" smooth="yes"/>
      <point x="275" y="44"/>
      <point x="294" y="30"/>
      <point x="370" y="25" type="curve"/>
      <point x="370" y="0" type="line"/>
      <point x="20" y="0" type="line"/>
      <point x="20" y="25" type="line"/>
      <point x="95" y="32"/>
      <point x="113" y="46"/>
    </contour>
  </outline>
</glyph>
<glyph name="K" format="2">
  <advance width="778"/>
  <unicode hex="004B"/>
  <outline>
    <contour>
      <point x="769" y="25" type="curve"/>
      <point x="769" y="0" type="line"/>
      <point x="433" y="0" type="line"/>
      <point x="433" y="25" type="line"/>
      <point x="447" y="26"/>
      <point x="460" y="26"/>
      <point x="465" y="26" type="curve" smooth="yes"/>
      <point x="498" y="28"/>
      <point x="512" y="33"/>
      <point x="512" y="46" type="curve" smooth="yes"/>
      <point x="512" y="57"/>
      <point x="507" y="66"/>
      <point x="488" y="90" type="curve" smooth="yes"/>
      <point x="306" y="317" type="line"/>
      <point x="279" y="292" type="line"/>
      <point x="279" y="96" type="line" smooth="yes"/>
      <point x="279" y="47"/>
      <point x="295" y="34"/>
      <point x="367" y="25" type="curve"/>
      <point x="367" y="0" type="line"/>
      <point x="30" y="0" type="line"/>
      <point x="30" y="25" type="line"/>
      <point x="102" y="33"/>
      <point x="117" y="45"/>
      <point x="117" y="96" type="curve" smooth="yes"/>
      <point x="117" y="580" type="line" smooth="yes"/>
      <point x="117" y="632"/>
      <point x="99" y="647"/>
      <point x="30" y="651" type="curve"/>
      <point x="30" y="676" type="line"/>
      <point x="368" y="676" type="line"/>
      <point x="368" y="651" type="line"/>
      <point x="294" y="646"/>
      <point x="279" y="630"/>
      <point x="279" y="559" type="curve" smooth="yes"/>
      <point x="279" y="345" type="line"/>
      <point x="496" y="563" type="line" smooth="yes"/>
      <point x="527" y="594"/>
      <point x="532" y="602"/>
      <point x="532" y="618" type="curve" smooth="yes"/>
      <point x="532" y="638"/>
      <point x="519" y="646"/>
      <point x="483" y="648" type="curve"/>
      <point x="478" y="649"/>
      <point x="464" y="650"/>
      <point x="447" y="651" type="curve"/>
      <point x="447" y="676" type="line"/>
      <point x="736" y="676" type="line"/>
      <point x="736" y="651" type="line"/>
      <point x="639" y="643"/>
      <point x="603" y="618"/>
      <point x="415" y="424" type="curve"/>
      <point x="720" y="46" type="line" smooth="yes"/>
      <point x="733" y="31"/>
      <point x="744" y="26"/>
    </contour>
  </outline>
</glyph>
<glyph name="Z" format="2">
  <advance width="667"/>
  <unicode hex="005A"/>
  <outline>
    <contour>
      <point x="634" y="241" type="line"/>
      <point x="608" y="0" type="line"/>
      <point x="28" y="0" type="line"/>
      <point x="28" y="16" type="line"/>
      <point x="410" y="641" type="line"/>
      <point x="373" y="640"/>
      <point x="339" y="639"/>
      <point x="327" y="638" type="curve" smooth="yes"/>
      <point x="179" y="640"/>
      <point x="135" y="609"/>
      <point x="87" y="470" type="curve"/>
      <point x="59" y="470" type="line"/>
      <point x="80" y="676" type="line"/>
      <point x="604" y="676" type="line"/>
      <point x="604" y="660" type="line"/>
      <point x="225" y="35" type="line"/>
      <point x="299" y="35" type="line" smooth="yes"/>
      <point x="395" y="35"/>
      <point x="477" y="50"/>
      <point x="511" y="74" type="curve" smooth="yes"/>
      <point x="558" y="107"/>
      <point x="581" y="147"/>
      <point x="608" y="241" type="curve"/>
    </contour>
  </outline>
</glyph>
<glyph name="c" format="2">
  <advance width="444"/>
  <unicode hex="0063"/>
  <outline>
    <contour>
      <point x="412" y="109" type="curve"/>
      <point x="430" y="91" type="line"/>
      <point x="372" y="17"/>
      <point x="316" y="-14"/>
      <point x="239" y="-14" type="curve" smooth="yes"/>
      <point x="115" y="-14"/>
      <point x="25" y="85"/>
      <point x="25" y="223" type="curve" smooth="yes"/>
      <point x="25" y="367"/>
      <point x="125" y="473"/>
      <point x="261" y="473" type="curve" smooth="yes"/>
      <point x="349" y="473"/>
      <point x="416" y="425"/>
      <point x="416" y="363" type="curve" smooth="yes"/>
      <point x="416" y="324"/>
      <point x="390" y="300"/>
      <point x="348" y="300" type="curve" smooth="yes"/>
      <point x="311" y="300"/>
      <point x="293" y="323"/>
      <point x="292" y="372" type="curve" smooth="yes"/>
      <point x="292" y="414"/>
      <point x="292" y="414"/>
      <point x="287" y="423" type="curve" smooth="yes"/>
      <point x="281" y="434"/>
      <point x="266" y="442"/>
      <point x="250" y="442" type="curve" smooth="yes"/>
      <point x="198" y="442"/>
      <point x="166" y="379"/>
      <point x="166" y="276" type="curve" smooth="yes"/>
      <point x="166" y="140"/>
      <point x="221" y="53"/>
      <point x="308" y="53" type="curve" smooth="yes"/>
      <point x="349" y="53"/>
      <point x="375" y="67"/>
    </contour>
  </outline>
</glyph>
<glyph name="uni0591" format="2">
  <advance width="0"/>
  <unicode hex="0591"/>
  <outline>
    <contour>
      <point x="-28" y="-116" type="curve"/>
      <point x="-28" y="-60" type="line" smooth="yes"/>
      <point x="-28" y="-52"/>
      <point x="-21" y="-45"/>
      <point x="-12" y="-45" type="curve" smooth="yes"/>
      <point x="12" y="-45" type="line" smooth="yes"/>
      <point x="21" y="-45"/>
      <point x="28" y="-52"/>
      <point x="28" y="-60" type="curve" smooth="yes"/>
      <point x="28" y="-116" type="line"/>
      <point x="56" y="-121"/>
      <point x="92" y="-143"/>
      <point x="92" y="-175" type="curve" smooth="yes"/>
      <point x="92" y="-220" type="line" smooth="yes"/>
      <point x="92" y="-228"/>
      <point x="86" y="-235"/>
      <point x="78" y="-235" type="curve" smooth="yes"/>
      <point x="52" y="-235" type="line" smooth="yes"/>
      <point x="44" y="-235"/>
      <point x="38" y="-228"/>
      <point x="38" y="-220" type="curve" smooth="yes"/>
      <point x="38" y="-178" type="line" smooth="yes"/>
      <point x="38" y="-157"/>
      <point x="21" y="-140"/>
      <point x="0" y="-140" type="curve" smooth="yes"/>
      <point x="-21" y="-140"/>
      <point x="-38" y="-157"/>
      <point x="-38" y="-178" type="curve" smooth="yes"/>
      <point x="-38" y="-220" type="line" smooth="yes"/>
      <point x="-38" y="-228"/>
      <point x="-44" y="-235"/>
      <point x="-52" y="-235" type="curve" smooth="yes"/>
      <point x="-78" y="-235" type="line" smooth="yes"/>
      <point x="-86" y="-235"/>
      <point x="-92" y="-228"/>
      <point x="-92" y="-220" type="curve" smooth="yes"/>
      <point x="-92" y="-175" type="line" smooth="yes"/>
      <point x="-92" y="-144"/>
      <point x="-60" y="-120"/>
    </contour>
  </outline>
</glyph>
<glyph name="uni0592" format="2">
  <advance width="0"/>
  <unicode hex="0592"/>
  <outline>
    <contour>
      <point x="-67" y="665" type="curve" smooth="yes"/>
      <point x="-88" y="665"/>
      <point x="-104" y="682"/>
      <point x="-104" y="702" type="curve" smooth="yes"/>
      <point x="-104" y="723"/>
      <point x="-88" y="740"/>
      <point x="-67" y="740" type="curve" smooth="yes"/>
      <point x="-46" y="740"/>
      <point x="-30" y="723"/>
      <point x="-30" y="702" type="curve" smooth="yes"/>
      <point x="-30" y="682"/>
      <point x="-46" y="665"/>
    </contour>
    <contour>
      <point x="0" y="780" type="curve" smooth="yes"/>
      <point x="-21" y="780"/>
      <point x="-38" y="797"/>
      <point x="-38" y="818" type="curve" smooth="yes"/>
      <point x="-38" y="838"/>
      <point x="-21" y="855"/>
      <point x="0" y="855" type="curve" smooth="yes"/>
      <point x="21" y="855"/>
      <point x="38" y="838"/>
      <point x="38" y="818" type="curve" smooth="yes"/>
      <point x="38" y="797"/>
      <point x="21" y="780"/>
    </contour>
    <contour>
      <point x="67" y="665" type="curve" smooth="yes"/>
      <point x="46" y="665"/>
      <point x="30" y="682"/>
      <point x="30" y="702" type="curve" smooth="yes"/>
      <point x="30" y="723"/>
      <point x="46" y="740"/>
      <point x="67" y="740" type="curve" smooth="yes"/>
      <point x="88" y="740"/>
      <point x="104" y="723"/>
      <point x="104" y="702" type="curve" smooth="yes"/>
      <point x="104" y="682"/>
      <point x="88" y="665"/>
    </contour>
  </outline>
</glyph>
<glyph name="uni0593" format="2">
  <advance width="0"/>
  <unicode hex="0593"/>
  <outline>
    <contour>
      <point x="-28" y="674" type="curve" smooth="yes"/>
      <point x="-63" y="701" type="line" smooth="yes"/>
      <point x="-84" y="717"/>
      <point x="-83" y="743"/>
      <point x="-60" y="743" type="curve" smooth="yes"/>
      <point x="-3" y="743" type="line"/>
      <point x="-63" y="788" type="line" smooth="yes"/>
      <point x="-84" y="804"/>
      <point x="-83" y="822"/>
      <point x="-60" y="822" type="curve" smooth="yes"/>
      <point x="0" y="822" type="line"/>
      <point x="-64" y="870" type="line" smooth="yes"/>
      <point x="-84" y="885"/>
      <point x="-84" y="900"/>
      <point x="-60" y="900" type="curve" smooth="yes"/>
      <point x="13" y="900" type="line" smooth="yes"/>
      <point x="27" y="900"/>
      <point x="36" y="896"/>
      <point x="41" y="892" type="curve" smooth="yes"/>
      <point x="55" y="881" type="line" smooth="yes"/>
      <point x="71" y="867"/>
      <point x="70" y="855"/>
      <point x="48" y="855" type="curve" smooth="yes"/>
      <point x="7" y="855" type="line"/>
      <point x="65" y="813" type="line" smooth="yes"/>
      <point x="83" y="799"/>
      <point x="84" y="783"/>
      <point x="61" y="783" type="curve" smooth="yes"/>
      <point x="0" y="783" type="line"/>
      <point x="65" y="734" type="line" smooth="yes"/>
      <point x="83" y="720"/>
      <point x="84" y="704"/>
      <point x="61" y="704" type="curve" smooth="yes"/>
      <point x="0" y="704" type="line"/>
      <point x="19" y="690" type="line" smooth="yes"/>
      <point x="35" y="678"/>
      <point x="37" y="665"/>
      <point x="14" y="665" type="curve" smooth="yes"/>
      <point x="2" y="665" type="line" smooth="yes"/>
      <point x="-13" y="665"/>
      <point x="-18" y="667"/>
    </contour>
  </outline>
</glyph>
<glyph name="uni0594" format="2">
  <advance width="0"/>
  <unicode hex="0594"/>
  <outline>
    <contour>
      <point x="0" y="740" type="curve" smooth="yes"/>
      <point x="21" y="740"/>
      <point x="38" y="723"/>
      <point x="38" y="702" type="curve" smooth="yes"/>
      <point x="38" y="682"/>
      <point x="21" y="665"/>
      <point x="0" y="665" type="curve" smooth="yes"/>
      <point x="-21" y="665"/>
      <point x="-38" y="682"/>
      <point x="-38" y="702" type="curve" smooth="yes"/>
      <point x="-38" y="723"/>
      <point x="-21" y="740"/>
    </contour>
    <contour>
      <point x="0" y="855" type="curve" smooth="yes"/>
      <point x="21" y="855"/>
      <point x="38" y="838"/>
      <point x="38" y="818" type="curve" smooth="yes"/>
      <point x="38" y="797"/>
      <point x="21" y="780"/>
      <point x="0" y="780" type="curve" smooth="yes"/>
      <point x="-21" y="780"/>
      <point x="-38" y="797"/>
      <point x="-38" y="818" type="curve" smooth="yes"/>
      <point x="-38" y="838"/>
      <point x="-21" y="855"/>
    </contour>
  </outline>
</glyph>
<glyph name="uni0598" format="2">
  <advance width="0"/>
  <unicode hex="0598"/>
  <outline>
    <contour>
      <point x="-64" y="763" type="line" smooth="yes"/>
      <point x="-69" y="768"/>
      <point x="-76" y="771"/>
      <point x="-84" y="771" type="curve" smooth="yes"/>
      <point x="-100" y="771"/>
      <point x="-113" y="758"/>
      <point x="-113" y="742" type="curve" smooth="yes"/>
      <point x="-113" y="717"/>
      <point x="-92" y="697"/>
      <point x="-68" y="697" type="curve" smooth="yes"/>
      <point x="-59" y="697"/>
      <point x="-52" y="690"/>
      <point x="-52" y="681" type="curve" smooth="yes"/>
      <point x="-52" y="672"/>
      <point x="-59" y="665"/>
      <point x="-68" y="665" type="curve" smooth="yes"/>
      <point x="-110" y="665"/>
      <point x="-145" y="700"/>
      <point x="-145" y="742" type="curve" smooth="yes"/>
      <point x="-145" y="785"/>
      <point x="-110" y="820"/>
      <point x="-68" y="820" type="curve" smooth="yes"/>
      <point x="-46" y="820"/>
      <point x="-27" y="811"/>
      <point x="-13" y="797" type="curve" smooth="yes"/>
      <point x="64" y="721" type="line" smooth="yes"/>
      <point x="69" y="716"/>
      <point x="76" y="713"/>
      <point x="84" y="713" type="curve" smooth="yes"/>
      <point x="100" y="713"/>
      <point x="113" y="726"/>
      <point x="113" y="742" type="curve" smooth="yes"/>
      <point x="113" y="767"/>
      <point x="92" y="787"/>
      <point x="68" y="787" type="curve" smooth="yes"/>
      <point x="59" y="787"/>
      <point x="52" y="795"/>
      <point x="52" y="803" type="curve" smooth="yes"/>
      <point x="52" y="812"/>
      <point x="59" y="820"/>
      <point x="68" y="820" type="curve" smooth="yes"/>
      <point x="110" y="820"/>
      <point x="145" y="785"/>
      <point x="145" y="742" type="curve" smooth="yes"/>
      <point x="145" y="700"/>
      <point x="110" y="665"/>
      <point x="68" y="665" type="curve" smooth="yes"/>
      <point x="46" y="665"/>
      <point x="27" y="674"/>
      <point x="13" y="688" type="curve" smooth="yes"/>
    </contour>
  </outline>
</glyph>
<glyph name="uni05A0" format="2">
  <advance width="0"/>
  <unicode hex="05A0"/>
  <outline>
    <contour>
      <point x="-12" y="841" type="curve" smooth="yes"/>
      <point x="-37" y="831"/>
      <point x="-50" y="803"/>
      <point x="-41" y="778" type="curve" smooth="yes"/>
      <point x="-32" y="753"/>
      <point x="-4" y="740"/>
      <point x="22" y="749" type="curve" smooth="yes"/>
      <point x="47" y="758"/>
      <point x="60" y="786"/>
      <point x="51" y="811" type="curve" smooth="yes"/>
      <point x="42" y="837"/>
      <point x="14" y="850"/>
    </contour>
    <contour>
      <point x="-63" y="737" type="line" smooth="yes"/>
      <point x="-59" y="744"/>
      <point x="-60" y="748"/>
      <point x="-65" y="757" type="curve" smooth="yes"/>
      <point x="-93" y="802"/>
      <point x="-72" y="862"/>
      <point x="-22" y="881" type="curve" smooth="yes"/>
      <point x="22" y="897"/>
      <point x="71" y="874"/>
      <point x="87" y="830" type="curve" smooth="yes"/>
      <point x="103" y="786"/>
      <point x="80" y="737"/>
      <point x="36" y="721" type="curve" smooth="yes"/>
      <point x="20" y="715"/>
      <point x="3" y="715"/>
      <point x="-13" y="719" type="curve" smooth="yes"/>
      <point x="-20" y="720"/>
      <point x="-24" y="718"/>
      <point x="-26" y="713" type="curve" smooth="yes"/>
      <point x="-39" y="674" type="line" smooth="yes"/>
      <point x="-42" y="666"/>
      <point x="-47" y="664"/>
      <point x="-56" y="667" type="curve" smooth="yes"/>
      <point x="-84" y="677" type="line" smooth="yes"/>
      <point x="-92" y="680"/>
      <point x="-94" y="686"/>
      <point x="-89" y="693" type="curve" smooth="yes"/>
    </contour>
  </outline>
</glyph>
<glyph name="uni05A4" format="2">
  <advance width="0"/>
  <unicode hex="05A4"/>
  <outline>
    <contour>
      <point x="85" y="-56" type="line" smooth="yes"/>
      <point x="87" y="-55"/>
      <point x="89" y="-55"/>
      <point x="91" y="-55" type="curve" smooth="yes"/>
      <point x="101" y="-55"/>
      <point x="109" y="-63"/>
      <point x="109" y="-72" type="curve" smooth="yes"/>
      <point x="109" y="-80"/>
      <point x="104" y="-86"/>
      <point x="98" y="-89" type="curve" smooth="yes"/>
      <point x="-12" y="-135" type="line"/>
      <point x="95" y="-179" type="line" smooth="yes"/>
      <point x="105" y="-183"/>
      <point x="109" y="-189"/>
      <point x="109" y="-200" type="curve" smooth="yes"/>
      <point x="109" y="-225" type="line" smooth="yes"/>
      <point x="109" y="-234"/>
      <point x="103" y="-237"/>
      <point x="95" y="-234" type="curve" smooth="yes"/>
      <point x="-99" y="-153" type="line" smooth="yes"/>
      <point x="-112" y="-148"/>
      <point x="-112" y="-138"/>
      <point x="-99" y="-133" type="curve" smooth="yes"/>
    </contour>
  </outline>
</glyph>
<glyph name="uni05A6" format="2">
  <advance width="0"/>
  <unicode hex="05A6"/>
  <outline>
    <contour>
      <point x="-20" y="-57" type="curve" smooth="yes"/>
      <point x="-19" y="-50"/>
      <point x="-13" y="-45"/>
      <point x="-6" y="-45" type="curve" smooth="yes"/>
      <point x="2" y="-45"/>
      <point x="8" y="-51"/>
      <point x="8" y="-59" type="curve" smooth="yes"/>
      <point x="6" y="-136"/>
      <point x="-23" y="-217"/>
      <point x="-81" y="-259" type="curve" smooth="yes"/>
      <point x="-86" y="-263"/>
      <point x="-92" y="-265"/>
      <point x="-98" y="-265" type="curve" smooth="yes"/>
      <point x="-115" y="-265"/>
      <point x="-128" y="-252"/>
      <point x="-128" y="-235" type="curve" smooth="yes"/>
      <point x="-128" y="-225"/>
      <point x="-123" y="-215"/>
      <point x="-115" y="-211" type="curve" smooth="yes"/>
      <point x="-62" y="-184"/>
      <point x="-36" y="-153"/>
    </contour>
    <contour>
      <point x="100" y="-57" type="curve" smooth="yes"/>
      <point x="101" y="-50"/>
      <point x="107" y="-45"/>
      <point x="114" y="-45" type="curve" smooth="yes"/>
      <point x="122" y="-45"/>
      <point x="128" y="-51"/>
      <point x="128" y="-59" type="curve" smooth="yes"/>
      <point x="126" y="-136"/>
      <point x="97" y="-217"/>
      <point x="39" y="-259" type="curve" smooth="yes"/>
      <point x="34" y="-263"/>
      <point x="28" y="-265"/>
      <point x="22" y="-265" type="curve" smooth="yes"/>
      <point x="5" y="-265"/>
      <point x="-8" y="-252"/>
      <point x="-8" y="-235" type="curve" smooth="yes"/>
      <point x="-8" y="-225"/>
      <point x="-3" y="-215"/>
      <point x="5" y="-211" type="curve" smooth="yes"/>
      <point x="58" y="-184"/>
      <point x="84" y="-153"/>
    </contour>
  </outline>
</glyph>
<glyph name="uni05A7" format="2">
  <advance width="0"/>
  <unicode hex="05A7"/>
  <outline>
    <contour>
      <point x="63" y="-199" type="line" smooth="yes"/>
      <point x="73" y="-210"/>
      <point x="78" y="-215"/>
      <point x="78" y="-232" type="curve" smooth="yes"/>
      <point x="78" y="-247" type="line" smooth="yes"/>
      <point x="78" y="-256"/>
      <point x="72" y="-264"/>
      <point x="65" y="-264" type="curve" smooth="yes"/>
      <point x="-65" y="-264" type="line" smooth="yes"/>
      <point x="-72" y="-264"/>
      <point x="-78" y="-256"/>
      <point x="-78" y="-247" type="curve" smooth="yes"/>
      <point x="-78" y="-230" type="line" smooth="yes"/>
      <point x="-78" y="-221"/>
      <point x="-72" y="-214"/>
      <point x="-65" y="-214" type="curve" smooth="yes"/>
      <point x="32" y="-214" type="line"/>
      <point x="-61" y="-121" type="line" smooth="yes"/>
      <point x="-73" y="-109"/>
      <point x="-78" y="-103"/>
      <point x="-78" y="-87" type="curve" smooth="yes"/>
      <point x="-78" y="-72" type="line" smooth="yes"/>
      <point x="-78" y="-62"/>
      <point x="-72" y="-55"/>
      <point x="-65" y="-55" type="curve" smooth="yes"/>
      <point x="65" y="-55" type="line" smooth="yes"/>
      <point x="72" y="-55"/>
      <point x="78" y="-62"/>
      <point x="78" y="-72" type="curve" smooth="yes"/>
      <point x="78" y="-88" type="line" smooth="yes"/>
      <point x="78" y="-98"/>
      <point x="72" y="-105"/>
      <point x="65" y="-105" type="curve" smooth="yes"/>
      <point x="-31" y="-105" type="line"/>
    </contour>
  </outline>
</glyph>
<glyph name="uni05AB" format="2">
  <advance width="0"/>
  <unicode hex="05AB"/>
  <outline>
    <contour>
      <point x="85" y="843" type="line"/>
      <point x="87" y="843"/>
      <point x="89" y="844"/>
      <point x="91" y="844" type="curve" smooth="yes"/>
      <point x="101" y="844"/>
      <point x="109" y="836"/>
      <point x="109" y="826" type="curve" smooth="yes"/>
      <point x="109" y="819"/>
      <point x="104" y="813"/>
      <point x="98" y="810" type="curve" smooth="yes"/>
      <point x="-12" y="764" type="line"/>
      <point x="95" y="720" type="line" smooth="yes"/>
      <point x="105" y="716"/>
      <point x="109" y="710"/>
      <point x="109" y="699" type="curve" smooth="yes"/>
      <point x="109" y="674" type="line" smooth="yes"/>
      <point x="109" y="665"/>
      <point x="103" y="662"/>
      <point x="95" y="665" type="curve" smooth="yes"/>
      <point x="-99" y="746" type="line" smooth="yes"/>
      <point x="-112" y="751"/>
      <point x="-112" y="761"/>
      <point x="-99" y="766" type="curve" smooth="yes"/>
    </contour>
  </outline>
</glyph>
<glyph name="uni05AC" format="2">
  <advance width="0"/>
  <unicode hex="05AC"/>
  <outline>
    <contour>
      <point x="80" y="720" type="line"/>
      <point x="80" y="825" type="line" smooth="yes"/>
      <point x="80" y="833"/>
      <point x="87" y="840"/>
      <point x="95" y="840" type="curve" smooth="yes"/>
      <point x="100" y="840" type="line" smooth="yes"/>
      <point x="108" y="840"/>
      <point x="115" y="833"/>
      <point x="115" y="825" type="curve" smooth="yes"/>
      <point x="115" y="680" type="line" smooth="yes"/>
      <point x="115" y="672"/>
      <point x="108" y="665"/>
      <point x="100" y="665" type="curve" smooth="yes"/>
      <point x="-100" y="665" type="line" smooth="yes"/>
      <point x="-108" y="665"/>
      <point x="-115" y="672"/>
      <point x="-115" y="680" type="curve" smooth="yes"/>
      <point x="-115" y="705" type="line" smooth="yes"/>
      <point x="-115" y="713"/>
      <point x="-108" y="720"/>
      <point x="-100" y="720" type="curve" smooth="yes"/>
    </contour>
  </outline>
</glyph>
<glyph name="afii57799" format="2">
  <advance width="0"/>
  <unicode hex="05B0"/>
  <outline>
    <contour>
      <point x="0" y="-160" type="curve" smooth="yes"/>
      <point x="21" y="-160"/>
      <point x="38" y="-177"/>
      <point x="38" y="-198" type="curve" smooth="yes"/>
      <point x="38" y="-218"/>
      <point x="21" y="-235"/>
      <point x="0" y="-235" type="curve" smooth="yes"/>
      <point x="-21" y="-235"/>
      <point x="-38" y="-218"/>
      <point x="-38" y="-198" type="curve" smooth="yes"/>
      <point x="-38" y="-177"/>
      <point x="-21" y="-160"/>
    </contour>
    <contour>
      <point x="0" y="-45" type="curve" smooth="yes"/>
      <point x="21" y="-45"/>
      <point x="38" y="-62"/>
      <point x="38" y="-82" type="curve" smooth="yes"/>
      <point x="38" y="-103"/>
      <point x="21" y="-120"/>
      <point x="0" y="-120" type="curve" smooth="yes"/>
      <point x="-21" y="-120"/>
      <point x="-38" y="-103"/>
      <point x="-38" y="-82" type="curve" smooth="yes"/>
      <point x="-38" y="-62"/>
      <point x="-21" y="-45"/>
    </contour>
  </outline>
</glyph>
<glyph name="afii57801" format="2">
  <advance width="0"/>
  <unicode hex="05B1"/>
  <outline>
    <contour>
      <point x="-132" y="-45" type="curve" smooth="yes"/>
      <point x="-111" y="-45"/>
      <point x="-94" y="-62"/>
      <point x="-94" y="-82" type="curve" smooth="yes"/>
      <point x="-94" y="-103"/>
      <point x="-111" y="-120"/>
      <point x="-132" y="-120" type="curve" smooth="yes"/>
      <point x="-153" y="-120"/>
      <point x="-170" y="-103"/>
      <point x="-170" y="-82" type="curve" smooth="yes"/>
      <point x="-170" y="-62"/>
      <point x="-153" y="-45"/>
    </contour>
    <contour>
      <point x="-65" y="-160" type="curve" smooth="yes"/>
      <point x="-44" y="-160"/>
      <point x="-28" y="-177"/>
      <point x="-28" y="-198" type="curve" smooth="yes"/>
      <point x="-28" y="-218"/>
      <point x="-44" y="-235"/>
      <point x="-65" y="-235" type="curve" smooth="yes"/>
      <point x="-86" y="-235"/>
      <point x="-102" y="-218"/>
      <point x="-102" y="-198" type="curve" smooth="yes"/>
      <point x="-102" y="-177"/>
      <point x="-86" y="-160"/>
    </contour>
    <contour>
      <point x="2" y="-45" type="curve" smooth="yes"/>
      <point x="23" y="-45"/>
      <point x="40" y="-62"/>
      <point x="40" y="-82" type="curve" smooth="yes"/>
      <point x="40" y="-103"/>
      <point x="23" y="-120"/>
      <point x="2" y="-120" type="curve" smooth="yes"/>
      <point x="-19" y="-120"/>
      <point x="-36" y="-103"/>
      <point x="-36" y="-82" type="curve" smooth="yes"/>
      <point x="-36" y="-62"/>
      <point x="-19" y="-45"/>
    </contour>
    <contour>
      <point x="132" y="-160" type="curve" smooth="yes"/>
      <point x="153" y="-160"/>
      <point x="170" y="-177"/>
      <point x="170" y="-198" type="curve" smooth="yes"/>
      <point x="170" y="-218"/>
      <point x="153" y="-235"/>
      <point x="132" y="-235" type="curve" smooth="yes"/>
      <point x="111" y="-235"/>
      <point x="94" y="-218"/>
      <point x="94" y="-198" type="curve" smooth="yes"/>
      <point x="94" y="-177"/>
      <point x="111" y="-160"/>
    </contour>
    <contour>
      <point x="132" y="-45" type="curve" smooth="yes"/>
      <point x="153" y="-45"/>
      <point x="170" y="-62"/>
      <point x="170" y="-82" type="curve" smooth="yes"/>
      <point x="170" y="-103"/>
      <point x="153" y="-120"/>
      <point x="132" y="-120" type="curve" smooth="yes"/>
      <point x="111" y="-120"/>
      <point x="94" y="-103"/>
      <point x="94" y="-82" type="curve" smooth="yes"/>
      <point x="94" y="-62"/>
      <point x="111" y="-45"/>
    </contour>
  </outline>
</glyph>
<glyph name="afii57802" format="2">
  <advance width="0"/>
  <unicode hex="05B3"/>
  <outline>
    <contour>
      <point x="-122" y="-110" type="curve" smooth="yes"/>
      <point x="-155" y="-110" type="line" smooth="yes"/>
      <point x="-164" y="-110"/>
      <point x="-170" y="-103"/>
      <point x="-170" y="-95" type="curve" smooth="yes"/>
      <point x="-170" y="-70" type="line" smooth="yes"/>
      <point x="-170" y="-62"/>
      <point x="-164" y="-55"/>
      <point x="-155" y="-55" type="curve" smooth="yes"/>
      <point x="23" y="-55" type="line" smooth="yes"/>
      <point x="32" y="-55"/>
      <point x="38" y="-62"/>
      <point x="38" y="-70" type="curve" smooth="yes"/>
      <point x="38" y="-95" type="line" smooth="yes"/>
      <point x="38" y="-103"/>
      <point x="32" y="-110"/>
      <point x="23" y="-110" type="curve" smooth="yes"/>
      <point x="-10" y="-110" type="line" smooth="yes"/>
      <point x="-38" y="-110"/>
      <point x="-48" y="-117"/>
      <point x="-48" y="-138" type="curve" smooth="yes"/>
      <point x="-48" y="-147"/>
      <point x="-49" y="-160"/>
      <point x="-38" y="-173" type="curve" smooth="yes"/>
      <point x="-32" y="-179"/>
      <point x="-29" y="-188"/>
      <point x="-29" y="-198" type="curve" smooth="yes"/>
      <point x="-29" y="-218"/>
      <point x="-45" y="-235"/>
      <point x="-66" y="-235" type="curve" smooth="yes"/>
      <point x="-87" y="-235"/>
      <point x="-104" y="-218"/>
      <point x="-104" y="-198" type="curve" smooth="yes"/>
      <point x="-104" y="-188"/>
      <point x="-100" y="-179"/>
      <point x="-94" y="-172" type="curve" smooth="yes"/>
      <point x="-83" y="-160"/>
      <point x="-85" y="-147"/>
      <point x="-85" y="-138" type="curve" smooth="yes"/>
      <point x="-85" y="-117"/>
      <point x="-96" y="-110"/>
    </contour>
    <contour>
      <point x="131" y="-160" type="curve" smooth="yes"/>
      <point x="152" y="-160"/>
      <point x="168" y="-177"/>
      <point x="168" y="-198" type="curve" smooth="yes"/>
      <point x="168" y="-218"/>
      <point x="152" y="-235"/>
      <point x="131" y="-235" type="curve" smooth="yes"/>
      <point x="110" y="-235"/>
      <point x="93" y="-218"/>
      <point x="93" y="-198" type="curve" smooth="yes"/>
      <point x="93" y="-177"/>
      <point x="110" y="-160"/>
    </contour>
    <contour>
      <point x="131" y="-45" type="curve" smooth="yes"/>
      <point x="152" y="-45"/>
      <point x="168" y="-62"/>
      <point x="168" y="-82" type="curve" smooth="yes"/>
      <point x="168" y="-103"/>
      <point x="152" y="-120"/>
      <point x="131" y="-120" type="curve" smooth="yes"/>
      <point x="110" y="-120"/>
      <point x="93" y="-103"/>
      <point x="93" y="-82" type="curve" smooth="yes"/>
      <point x="93" y="-62"/>
      <point x="110" y="-45"/>
    </contour>
  </outline>
</glyph>
<glyph name="afii57794" format="2">
  <advance width="0"/>
  <unicode hex="05B5"/>
  <outline>
    <contour>
      <point x="20" y="-82" type="curve" smooth="yes"/>
      <point x="20" y="-62"/>
      <point x="37" y="-45"/>
      <point x="58" y="-45" type="curve" smooth="yes"/>
      <point x="78" y="-45"/>
      <point x="95" y="-62"/>
      <point x="95" y="-82" type="curve" smooth="yes"/>
      <point x="95" y="-103"/>
      <point x="78" y="-120"/>
      <point x="58" y="-120" type="curve" smooth="yes"/>
      <point x="37" y="-120"/>
      <point x="20" y="-103"/>
    </contour>
    <contour>
      <point x="-95" y="-82" type="curve" smooth="yes"/>
      <point x="-95" y="-62"/>
      <point x="-78" y="-45"/>
      <point x="-58" y="-45" type="curve" smooth="yes"/>
      <point x="-37" y="-45"/>
      <point x="-20" y="-62"/>
      <point x="-20" y="-82" type="curve" smooth="yes"/>
      <point x="-20" y="-103"/>
      <point x="-37" y="-120"/>
      <point x="-58" y="-120" type="curve" smooth="yes"/>
      <point x="-78" y="-120"/>
      <point x="-95" y="-103"/>
    </contour>
  </outline>
</glyph>
<glyph name="afii57795" format="2">
  <advance width="0"/>
  <unicode hex="05B6"/>
  <outline>
    <contour>
      <point x="-67" y="-45" type="curve" smooth="yes"/>
      <point x="-46" y="-45"/>
      <point x="-30" y="-62"/>
      <point x="-30" y="-82" type="curve" smooth="yes"/>
      <point x="-30" y="-103"/>
      <point x="-46" y="-120"/>
      <point x="-67" y="-120" type="curve" smooth="yes"/>
      <point x="-88" y="-120"/>
      <point x="-104" y="-103"/>
      <point x="-104" y="-82" type="curve" smooth="yes"/>
      <point x="-104" y="-62"/>
      <point x="-88" y="-45"/>
    </contour>
    <contour>
      <point x="0" y="-160" type="curve" smooth="yes"/>
      <point x="21" y="-160"/>
      <point x="38" y="-177"/>
      <point x="38" y="-198" type="curve" smooth="yes"/>
      <point x="38" y="-218"/>
      <point x="21" y="-235"/>
      <point x="0" y="-235" type="curve" smooth="yes"/>
      <point x="-21" y="-235"/>
      <point x="-38" y="-218"/>
      <point x="-38" y="-198" type="curve" smooth="yes"/>
      <point x="-38" y="-177"/>
      <point x="-21" y="-160"/>
    </contour>
    <contour>
      <point x="67" y="-45" type="curve" smooth="yes"/>
      <point x="88" y="-45"/>
      <point x="104" y="-62"/>
      <point x="104" y="-82" type="curve" smooth="yes"/>
      <point x="104" y="-103"/>
      <point x="88" y="-120"/>
      <point x="67" y="-120" type="curve" smooth="yes"/>
      <point x="46" y="-120"/>
      <point x="30" y="-103"/>
      <point x="30" y="-82" type="curve" smooth="yes"/>
      <point x="30" y="-62"/>
      <point x="46" y="-45"/>
    </contour>
  </outline>
</glyph>
<glyph name="afii57807" format="2">
  <advance width="0"/>
  <unicode hex="05BC"/>
  <outline>
    <contour>
      <point x="0" y="338" type="curve"/>
      <point x="0" y="338.5" type="line"/>
      <point x="21" y="338.5"/>
      <point x="38" y="321.5"/>
      <point x="38" y="300.5" type="curve" smooth="yes"/>
      <point x="38" y="279.5"/>
      <point x="21" y="262.5"/>
      <point x="0" y="262.5" type="curve" smooth="yes"/>
      <point x="-21" y="262.5"/>
      <point x="-38" y="279.5"/>
      <point x="-38" y="300.5" type="curve" smooth="yes"/>
      <point x="-38" y="321.5"/>
      <point x="-21" y="338.5"/>
    </contour>
  </outline>
</glyph>
<glyph name="afii57839" format="2">
  <advance width="0"/>
  <unicode hex="05BD"/>
  <outline>
    <contour>
      <point x="-12" y="-230" type="line" smooth="yes"/>
      <point x="-21" y="-230"/>
      <point x="-28" y="-223"/>
      <point x="-28" y="-215" type="curve" smooth="yes"/>
      <point x="-28" y="-60" type="line" smooth="yes"/>
      <point x="-28" y="-52"/>
      <point x="-21" y="-45"/>
      <point x="-12" y="-45" type="curve" smooth="yes"/>
      <point x="12" y="-45" type="line" smooth="yes"/>
      <point x="21" y="-45"/>
      <point x="28" y="-52"/>
      <point x="28" y="-60" type="curve" smooth="yes"/>
      <point x="28" y="-215" type="line" smooth="yes"/>
      <point x="28" y="-223"/>
      <point x="21" y="-230"/>
      <point x="12" y="-230" type="curve" smooth="yes"/>
    </contour>
  </outline>
</glyph>
<glyph name="afii57645" format="2">
  <advance width="433"/>
  <unicode hex="05BE"/>
  <outline>
    <contour>
      <point x="36" y="574" type="line" smooth="yes"/>
      <point x="36" y="594"/>
      <point x="46" y="600"/>
      <point x="62" y="600" type="curve" smooth="yes"/>
      <point x="369" y="600" type="line" smooth="yes"/>
      <point x="390" y="600"/>
      <point x="399" y="590"/>
      <point x="399" y="575" type="curve" smooth="yes"/>
      <point x="399" y="420"/>
      <point x="399" y="620"/>
      <point x="399" y="465" type="curve" smooth="yes"/>
      <point x="399" y="450"/>
      <point x="390" y="440"/>
      <point x="369" y="440" type="curve" smooth="yes"/>
      <point x="62" y="440" type="line" smooth="yes"/>
      <point x="46" y="440"/>
      <point x="36" y="446"/>
      <point x="36" y="466" type="curve" smooth="yes"/>
    </contour>
  </outline>
</glyph>
<glyph name="afii57842" format="2">
  <advance width="155"/>
  <unicode hex="05C0"/>
  <outline>
    <contour>
      <point x="65" y="-15" type="line" smooth="yes"/>
      <point x="57" y="-15"/>
      <point x="50" y="-8"/>
      <point x="50" y="0" type="curve" smooth="yes"/>
      <point x="50" y="645" type="line" smooth="yes"/>
      <point x="50" y="653"/>
      <point x="57" y="660"/>
      <point x="65" y="660" type="curve" smooth="yes"/>
      <point x="90" y="660" type="line" smooth="yes"/>
      <point x="98" y="660"/>
      <point x="105" y="653"/>
      <point x="105" y="645" type="curve" smooth="yes"/>
      <point x="105" y="0" type="line" smooth="yes"/>
      <point x="105" y="-8"/>
      <point x="98" y="-15"/>
      <point x="90" y="-15" type="curve" smooth="yes"/>
    </contour>
  </outline>
</glyph>
<glyph name="afii57804" format="2">
  <advance width="0"/>
  <unicode hex="05C1"/>
  <outline>
    <contour>
      <point x="644" y="705" type="curve" smooth="yes"/>
      <point x="665" y="705"/>
      <point x="682" y="688"/>
      <point x="682" y="668" type="curve" smooth="yes"/>
      <point x="682" y="647"/>
      <point x="665" y="630"/>
      <point x="644" y="630" type="curve" smooth="yes"/>
      <point x="623" y="630"/>
      <point x="606" y="647"/>
      <point x="606" y="668" type="curve" smooth="yes"/>
      <point x="606" y="688"/>
      <point x="623" y="705"/>
    </contour>
  </outline>
</glyph>
<glyph name="afii57803" format="2">
  <advance width="0"/>
  <unicode hex="05C2"/>
  <outline>
    <contour>
      <point x="172" y="705" type="curve"/>
      <point x="171.5" y="705" type="line"/>
      <point x="192.5" y="705"/>
      <point x="209.5" y="688"/>
      <point x="209.5" y="668" type="curve" smooth="yes"/>
      <point x="209.5" y="647"/>
      <point x="192.5" y="630"/>
      <point x="171.5" y="630" type="curve" smooth="yes"/>
      <point x="151.5" y="630"/>
      <point x="134.5" y="647"/>
      <point x="134.5" y="668" type="curve" smooth="yes"/>
      <point x="134.5" y="688"/>
      <point x="151.5" y="705"/>
    </contour>
  </outline>
</glyph>
<glyph name="afii57666" format="2">
  <advance width="339"/>
  <unicode hex="05D2"/>
  <outline>
    <contour>
      <point x="187" y="21" type="line" smooth="yes"/>
      <point x="181" y="7"/>
      <point x="172" y="0"/>
      <point x="156" y="0" type="curve" smooth="yes"/>
      <point x="28" y="0" type="line" smooth="yes"/>
      <point x="12" y="0"/>
      <point x="6" y="9"/>
      <point x="11" y="22" type="curve" smooth="yes"/>
      <point x="59" y="139" type="line" smooth="yes"/>
      <point x="65" y="153"/>
      <point x="74" y="160"/>
      <point x="90" y="160" type="curve" smooth="yes"/>
      <point x="196" y="160" type="line" smooth="yes"/>
      <point x="217" y="160"/>
      <point x="228" y="172"/>
      <point x="228" y="194" type="curve" smooth="yes"/>
      <point x="228" y="280"/>
      <point x="229" y="322"/>
      <point x="236" y="400" type="curve"/>
      <point x="236" y="400"/>
      <point x="238" y="422"/>
      <point x="215" y="425" type="curve" smooth="yes"/>
      <point x="176" y="431"/>
      <point x="140" y="436"/>
      <point x="113" y="461" type="curve" smooth="yes"/>
      <point x="102" y="472"/>
      <point x="91" y="488"/>
      <point x="86" y="505" type="curve" smooth="yes"/>
      <point x="80" y="523"/>
      <point x="80" y="543"/>
      <point x="80" y="558" type="curve" smooth="yes"/>
      <point x="82" y="581"/>
      <point x="90" y="607"/>
      <point x="97" y="618" type="curve" smooth="yes"/>
      <point x="118" y="650"/>
      <point x="129" y="653"/>
      <point x="148" y="624" type="curve" smooth="yes"/>
      <point x="160" y="604"/>
      <point x="188" y="598"/>
      <point x="201" y="594" type="curve" smooth="yes"/>
      <point x="242" y="584"/>
      <point x="268" y="558"/>
      <point x="274" y="526" type="curve" smooth="yes"/>
      <point x="280" y="493"/>
      <point x="260" y="454"/>
      <point x="262" y="408" type="curve" smooth="yes"/>
      <point x="266" y="321"/>
      <point x="309" y="208"/>
      <point x="314" y="163" type="curve" smooth="yes"/>
      <point x="320" y="110"/>
      <point x="318" y="80"/>
      <point x="297" y="26" type="curve" smooth="yes"/>
      <point x="278" y="-23"/>
      <point x="262" y="7"/>
      <point x="258" y="28" type="curve" smooth="yes"/>
      <point x="253" y="58"/>
      <point x="246" y="100"/>
      <point x="240" y="120" type="curve" smooth="yes"/>
      <point x="236" y="134"/>
      <point x="229" y="128"/>
      <point x="224" y="116" type="curve" smooth="yes"/>
    </contour>
  </outline>
</glyph>
<glyph name="afii57667" format="2">
  <advance width="523"/>
  <unicode hex="05D3"/>
  <outline>
    <contour>
      <point x="173" y="600" type="curve" smooth="yes"/>
      <point x="417" y="600" type="line" smooth="yes"/>
      <point x="477" y="600"/>
      <point x="484" y="563"/>
      <point x="485" y="523" type="curve" smooth="yes"/>
      <point x="487" y="486"/>
      <point x="481" y="448"/>
      <point x="436" y="441" type="curve" smooth="yes"/>
      <point x="422" y="439"/>
      <point x="423" y="426"/>
      <point x="423" y="426" type="curve"/>
      <point x="430" y="377"/>
      <point x="455" y="210"/>
      <point x="461" y="155" type="curve" smooth="yes"/>
      <point x="464" y="133"/>
      <point x="465" y="77"/>
      <point x="437" y="20" type="curve" smooth="yes"/>
      <point x="420" y="-17"/>
      <point x="384" y="-10"/>
      <point x="385" y="25" type="curve" smooth="yes"/>
      <point x="392" y="426" type="line" smooth="yes"/>
      <point x="391" y="440"/>
      <point x="384" y="440"/>
      <point x="376" y="440" type="curve" smooth="yes"/>
      <point x="108" y="440" type="line" smooth="yes"/>
      <point x="63" y="440"/>
      <point x="38" y="492"/>
      <point x="34" y="514" type="curve" smooth="yes"/>
      <point x="27" y="548"/>
      <point x="36" y="597"/>
      <point x="52" y="628" type="curve" smooth="yes"/>
      <point x="62" y="650"/>
      <point x="74" y="649"/>
      <point x="82" y="631" type="curve" smooth="yes"/>
      <point x="100" y="596"/>
      <point x="135" y="600"/>
    </contour>
  </outline>
</glyph>
<glyph name="afii57673" format="2">
  <advance width="266"/>
  <unicode hex="05D9"/>
  <outline>
    <contour>
      <point x="229" y="419" type="curve" smooth="yes"/>
      <point x="223" y="390"/>
      <point x="206" y="357"/>
      <point x="182" y="324" type="curve" smooth="yes"/>
      <point x="173" y="312"/>
      <point x="161" y="295"/>
      <point x="150" y="304" type="curve" smooth="yes"/>
      <point x="137" y="314"/>
      <point x="146" y="335"/>
      <point x="151" y="344" type="curve" smooth="yes"/>
      <point x="166" y="371"/>
      <point x="178" y="390"/>
      <point x="162" y="415" type="curve" smooth="yes"/>
      <point x="148" y="436"/>
      <point x="127" y="433"/>
      <point x="100" y="445" type="curve" smooth="yes"/>
      <point x="76" y="456"/>
      <point x="53" y="473"/>
      <point x="38" y="508" type="curve" smooth="yes"/>
      <point x="29" y="530"/>
      <point x="28" y="562"/>
      <point x="30" y="579" type="curve" smooth="yes"/>
      <point x="33" y="604"/>
      <point x="39" y="619"/>
      <point x="49" y="631" type="curve" smooth="yes"/>
      <point x="69" y="654"/>
      <point x="79" y="646"/>
      <point x="91" y="626" type="curve" smooth="yes"/>
      <point x="104" y="606"/>
      <point x="118" y="598"/>
      <point x="145" y="592" type="curve" smooth="yes"/>
      <point x="170" y="587"/>
      <point x="200" y="571"/>
      <point x="216" y="541" type="curve" smooth="yes"/>
      <point x="239" y="500"/>
      <point x="237" y="458"/>
    </contour>
  </outline>
</glyph>
<glyph name="afii57676" format="2">
  <advance width="510"/>
  <unicode hex="05DC"/>
  <outline>
    <contour>
      <point x="41" y="874" type="curve" smooth="yes"/>
      <point x="43" y="890"/>
      <point x="46" y="902"/>
      <point x="66" y="899" type="curve" smooth="yes"/>
      <point x="117" y="891"/>
      <point x="142" y="833"/>
      <point x="142" y="812" type="curve" smooth="yes"/>
      <point x="142" y="787"/>
      <point x="99" y="756"/>
      <point x="87" y="737" type="curve" smooth="yes"/>
      <point x="75" y="718"/>
      <point x="77" y="698"/>
      <point x="77" y="652" type="curve" smooth="yes"/>
      <point x="77" y="620"/>
      <point x="72" y="600"/>
      <point x="116" y="600" type="curve" smooth="yes"/>
      <point x="386" y="600" type="line" smooth="yes"/>
      <point x="430" y="600"/>
      <point x="463" y="586"/>
      <point x="470" y="544" type="curve" smooth="yes"/>
      <point x="481" y="480"/>
      <point x="475" y="443"/>
      <point x="475" y="386" type="curve" smooth="yes"/>
      <point x="475" y="319"/>
      <point x="409" y="268"/>
      <point x="345" y="209" type="curve" smooth="yes"/>
      <point x="327" y="193"/>
      <point x="294" y="155"/>
      <point x="284" y="101" type="curve" smooth="yes"/>
      <point x="280" y="82"/>
      <point x="295" y="71"/>
      <point x="295" y="48" type="curve" smooth="yes"/>
      <point x="295" y="20"/>
      <point x="282" y="-5"/>
      <point x="252" y="-5" type="curve" smooth="yes"/>
      <point x="224" y="-5"/>
      <point x="204" y="17"/>
      <point x="201" y="45" type="curve" smooth="yes"/>
      <point x="196" y="90"/>
      <point x="241" y="156"/>
      <point x="262" y="175" type="curve" smooth="yes"/>
      <point x="399" y="297"/>
      <point x="427" y="320"/>
      <point x="425" y="374" type="curve" smooth="yes"/>
      <point x="423" y="418"/>
      <point x="416" y="440"/>
      <point x="359" y="440" type="curve" smooth="yes"/>
      <point x="116" y="440" type="line" smooth="yes"/>
      <point x="58" y="440"/>
      <point x="33" y="472"/>
      <point x="33" y="516" type="curve" smooth="yes"/>
      <point x="33" y="622"/>
      <point x="30" y="687"/>
      <point x="41" y="719" type="curve" smooth="yes"/>
      <point x="55" y="760"/>
      <point x="79" y="768"/>
      <point x="78" y="784" type="curve" smooth="yes"/>
      <point x="77" y="800"/>
      <point x="48" y="814"/>
      <point x="42" y="826" type="curve" smooth="yes"/>
      <point x="38" y="833"/>
      <point x="39" y="858"/>
    </contour>
  </outline>
</glyph>
<glyph name="afii57678" format="2">
  <advance width="581"/>
  <unicode hex="05DE"/>
  <outline>
    <contour>
      <point x="101" y="378" type="curve"/>
      <point x="100.79" y="378.5" type="line"/>
      <point x="71.79" y="406.5"/>
      <point x="44.79" y="448.5"/>
      <point x="41.79" y="478.5" type="curve" smooth="yes"/>
      <point x="37.79" y="514.5"/>
      <point x="36.79" y="541.5"/>
      <point x="55.79" y="582.5" type="curve" smooth="yes"/>
      <point x="66.79" y="605.5"/>
      <point x="80.79" y="619.5"/>
      <point x="93.79" y="630.5" type="curve" smooth="yes"/>
      <point x="110.79" y="643.5"/>
      <point x="125.79" y="637.5"/>
      <point x="131.79" y="616.5" type="curve" smooth="yes"/>
      <point x="136.79" y="599.5"/>
      <point x="157.79" y="588.5"/>
      <point x="169.79" y="583.5" type="curve" smooth="yes"/>
      <point x="193.79" y="573.5"/>
      <point x="215.79" y="541.5"/>
      <point x="229.79" y="481.5" type="curve" smooth="yes"/>
      <point x="231.79" y="474.5"/>
      <point x="238.79" y="466.5"/>
      <point x="247.79" y="472.5" type="curve" smooth="yes"/>
      <point x="281.79" y="496.5"/>
      <point x="289.79" y="560.5"/>
      <point x="293.79" y="601.5" type="curve" smooth="yes"/>
      <point x="295.79" y="617.5"/>
      <point x="304.79" y="625.5"/>
      <point x="317.79" y="624.5" type="curve" smooth="yes"/>
      <point x="403.79" y="618.5"/>
      <point x="450.79" y="579.5"/>
      <point x="483.79" y="537.5" type="curve" smooth="yes"/>
      <point x="548.79" y="456.5"/>
      <point x="565.79" y="326.5"/>
      <point x="567.79" y="185.5" type="curve" smooth="yes"/>
      <point x="567.79" y="169.5"/>
      <point x="558.79" y="144.5"/>
      <point x="558.79" y="144.5" type="curve"/>
      <point x="507.79" y="21.5" type="line" smooth="yes"/>
      <point x="500.79" y="8.5"/>
      <point x="492.79" y="0.5"/>
      <point x="476.79" y="0.5" type="curve" smooth="yes"/>
      <point x="160.79" y="0.5" type="line" smooth="yes"/>
      <point x="144.79" y="0.5"/>
      <point x="138.79" y="9.5"/>
      <point x="144.79" y="22.5" type="curve" smooth="yes"/>
      <point x="192.79" y="139.5" type="line" smooth="yes"/>
      <point x="197.79" y="153.5"/>
      <point x="207.79" y="160.5"/>
      <point x="223.79" y="160.5" type="curve" smooth="yes"/>
      <point x="519.79" y="160.5" type="line" smooth="yes"/>
      <point x="528.79" y="160.5"/>
      <point x="535.79" y="167.5"/>
      <point x="535.79" y="176.5" type="curve" smooth="yes"/>
      <point x="534.79" y="226.5"/>
      <point x="524.79" y="323.5"/>
      <point x="458.79" y="388.5" type="curve" smooth="yes"/>
      <point x="399.79" y="446.5"/>
      <point x="342.79" y="449.5"/>
      <point x="301.79" y="449.5" type="curve" smooth="yes"/>
      <point x="242.79" y="449.5"/>
      <point x="166.79" y="407.5"/>
      <point x="143.79" y="354.5" type="curve" smooth="yes"/>
      <point x="105.79" y="265.5"/>
      <point x="132.79" y="189.5"/>
      <point x="125.79" y="107.5" type="curve" smooth="yes"/>
      <point x="123.79" y="78.5"/>
      <point x="117.79" y="55.5"/>
      <point x="108.79" y="33.5" type="curve" smooth="yes"/>
      <point x="93.79" y="-2.5"/>
      <point x="68.79" y="-21.5"/>
      <point x="59.79" y="43.5" type="curve" smooth="yes"/>
      <point x="53.79" y="89.5"/>
      <point x="50.79" y="128.5"/>
      <point x="58.79" y="188.5" type="curve" smooth="yes"/>
      <point x="66.79" y="246.5"/>
      <point x="87.79" y="304.5"/>
      <point x="107.79" y="344.5" type="curve" smooth="yes"/>
      <point x="113.79" y="356.5"/>
      <point x="110.79" y="368.5"/>
    </contour>
  </outline>
</glyph>
<glyph name="afii57679" format="2">
  <advance width="273"/>
  <unicode hex="05DF"/>
  <outline>
    <contour>
      <point x="82" y="447" type="curve"/>
      <point x="82" y="446.93" type="line"/>
      <point x="63" y="455.93"/>
      <point x="46" y="476.93"/>
      <point x="39" y="495.93" type="curve" smooth="yes"/>
      <point x="32" y="516.93"/>
      <point x="31" y="535.93"/>
      <point x="32" y="551.93" type="curve" smooth="yes"/>
      <point x="33" y="573.93"/>
      <point x="43" y="606.93"/>
      <point x="50" y="617.93" type="curve" smooth="yes"/>
      <point x="70" y="649.93"/>
      <point x="81" y="652.93"/>
      <point x="100" y="623.93" type="curve" smooth="yes"/>
      <point x="112" y="603.93"/>
      <point x="140" y="599.93"/>
      <point x="154" y="595.93" type="curve" smooth="yes"/>
      <point x="182" y="589.93"/>
      <point x="200" y="584.93"/>
      <point x="216" y="568.93" type="curve" smooth="yes"/>
      <point x="251" y="536.93"/>
      <point x="238" y="468.93"/>
      <point x="207" y="437.93" type="curve" smooth="yes"/>
      <point x="194" y="424.93"/>
      <point x="187" y="411.93"/>
      <point x="187" y="411.93" type="curve"/>
      <point x="171" y="376.93"/>
      <point x="159" y="353.93"/>
      <point x="155" y="321.93" type="curve" smooth="yes"/>
      <point x="150" y="275.93"/>
      <point x="159" y="212.93"/>
      <point x="168" y="159.93" type="curve" smooth="yes"/>
      <point x="181" y="82.9297"/>
      <point x="198" y="-86.0703"/>
      <point x="193" y="-132.07" type="curve" smooth="yes"/>
      <point x="188" y="-173.07"/>
      <point x="172" y="-213.07"/>
      <point x="138" y="-264.07" type="curve" smooth="yes"/>
      <point x="120" y="-290.07"/>
      <point x="97" y="-282.07"/>
      <point x="99" y="-256.07" type="curve" smooth="yes"/>
      <point x="105" y="-191.07"/>
      <point x="110" y="-113.07"/>
      <point x="111" y="-24.0703" type="curve" smooth="yes"/>
      <point x="113" y="75.9297"/>
      <point x="102" y="131.93"/>
      <point x="105" y="231.93" type="curve" smooth="yes"/>
      <point x="107" y="298.93"/>
      <point x="118" y="345.93"/>
      <point x="151" y="413.93" type="curve" smooth="yes"/>
      <point x="154" y="419.93"/>
      <point x="155" y="427.93"/>
      <point x="144" y="429.93" type="curve" smooth="yes"/>
      <point x="123" y="432.93"/>
      <point x="105" y="435.93"/>
    </contour>
  </outline>
</glyph>
<glyph name="afii57680" format="2">
  <advance width="347"/>
  <unicode hex="05E0"/>
  <outline>
    <contour>
      <point x="217" y="0" type="curve" smooth="yes"/>
      <point x="24" y="0" type="line" smooth="yes"/>
      <point x="8" y="0"/>
      <point x="3" y="9"/>
      <point x="8" y="22" type="curve" smooth="yes"/>
      <point x="56" y="139" type="line" smooth="yes"/>
      <point x="62" y="153"/>
      <point x="71" y="160"/>
      <point x="87" y="160" type="curve" smooth="yes"/>
      <point x="212" y="160" type="line" smooth="yes"/>
      <point x="230" y="160"/>
      <point x="235" y="170"/>
      <point x="234" y="184" type="curve" smooth="yes"/>
      <point x="226" y="298"/>
      <point x="231" y="322"/>
      <point x="238" y="400" type="curve"/>
      <point x="238" y="400"/>
      <point x="239" y="422"/>
      <point x="217" y="425" type="curve" smooth="yes"/>
      <point x="177" y="431"/>
      <point x="146" y="436"/>
      <point x="120" y="461" type="curve" smooth="yes"/>
      <point x="108" y="472"/>
      <point x="98" y="488"/>
      <point x="92" y="505" type="curve" smooth="yes"/>
      <point x="87" y="523"/>
      <point x="86" y="543"/>
      <point x="87" y="558" type="curve" smooth="yes"/>
      <point x="88" y="581"/>
      <point x="97" y="607"/>
      <point x="104" y="618" type="curve" smooth="yes"/>
      <point x="124" y="650"/>
      <point x="139" y="653"/>
      <point x="158" y="624" type="curve" smooth="yes"/>
      <point x="170" y="604"/>
      <point x="204" y="598"/>
      <point x="217" y="594" type="curve" smooth="yes"/>
      <point x="258" y="584"/>
      <point x="285" y="558"/>
      <point x="292" y="526" type="curve" smooth="yes"/>
      <point x="306" y="462"/>
      <point x="270" y="436"/>
      <point x="270" y="408" type="curve" smooth="yes"/>
      <point x="269" y="335"/>
      <point x="308" y="272"/>
      <point x="313" y="176" type="curve" smooth="yes"/>
      <point x="316" y="123"/>
      <point x="318" y="85"/>
      <point x="297" y="42" type="curve" smooth="yes"/>
      <point x="276" y="0"/>
      <point x="234" y="0"/>
    </contour>
  </outline>
</glyph>
<glyph name="afii57681" format="2">
  <advance width="512"/>
  <unicode hex="05E1"/>
  <outline>
    <contour>
      <point x="184" y="600" type="curve" smooth="yes"/>
      <point x="184.5" y="600" type="line" smooth="yes"/>
      <point x="233.5" y="596"/>
      <point x="376.5" y="612"/>
      <point x="432.5" y="540" type="curve" smooth="yes"/>
      <point x="489.5" y="467"/>
      <point x="490.5" y="330"/>
      <point x="487.5" y="186" type="curve" smooth="yes"/>
      <point x="486.5" y="169"/>
      <point x="482.5" y="150"/>
      <point x="475.5" y="134" type="curve" smooth="yes"/>
      <point x="429.5" y="22" type="line" smooth="yes"/>
      <point x="424.5" y="10"/>
      <point x="411.5" y="0"/>
      <point x="394.5" y="0" type="curve" smooth="yes"/>
      <point x="88.5" y="0" type="line" smooth="yes"/>
      <point x="72.5" y="0"/>
      <point x="63.5" y="8"/>
      <point x="63.5" y="25" type="curve" smooth="yes"/>
      <point x="62.5" y="48"/>
      <point x="61.5" y="82"/>
      <point x="59.5" y="108" type="curve" smooth="yes"/>
      <point x="50.5" y="208"/>
      <point x="47.5" y="171"/>
      <point x="46.5" y="243" type="curve" smooth="yes"/>
      <point x="45.5" y="303"/>
      <point x="102.5" y="416"/>
      <point x="126.5" y="440" type="curve"/>
      <point x="74.5" y="450"/>
      <point x="53.5" y="496"/>
      <point x="48.5" y="518" type="curve" smooth="yes"/>
      <point x="39.5" y="559"/>
      <point x="47.5" y="597"/>
      <point x="62.5" y="628" type="curve" smooth="yes"/>
      <point x="73.5" y="650"/>
      <point x="84.5" y="649"/>
      <point x="93.5" y="631" type="curve" smooth="yes"/>
      <point x="110.5" y="596"/>
      <point x="145.5" y="602"/>
    </contour>
    <contour>
      <point x="163.5" y="440" type="curve"/>
      <point x="125.5" y="386"/>
      <point x="96.5" y="340"/>
      <point x="98.5" y="269" type="curve" smooth="yes"/>
      <point x="100.5" y="235"/>
      <point x="101.5" y="223"/>
      <point x="106.5" y="185" type="curve" smooth="yes"/>
      <point x="109.5" y="162"/>
      <point x="120.5" y="160"/>
      <point x="134.5" y="160" type="curve" smooth="yes"/>
      <point x="430.5" y="160" type="line" smooth="yes"/>
      <point x="448.5" y="160"/>
      <point x="455.5" y="170"/>
      <point x="455.5" y="185" type="curve" smooth="yes"/>
      <point x="455.5" y="250"/>
      <point x="458.5" y="345"/>
      <point x="430.5" y="387" type="curve" smooth="yes"/>
      <point x="415.5" y="410"/>
      <point x="376.5" y="433"/>
      <point x="338.5" y="436" type="curve" smooth="yes"/>
      <point x="290.5" y="440"/>
      <point x="210.5" y="441"/>
    </contour>
  </outline>
</glyph>
<glyph name="afii57682" format="2">
  <advance width="552"/>
  <unicode hex="05E2"/>
  <outline>
    <contour>
      <point x="138" y="404" type="curve" smooth="yes"/>
      <point x="142" y="424"/>
      <point x="134" y="435"/>
      <point x="123" y="437" type="curve" smooth="yes"/>
      <point x="102" y="439"/>
      <point x="85" y="446"/>
      <point x="71" y="456" type="curve" smooth="yes"/>
      <point x="58" y="465"/>
      <point x="47" y="479"/>
      <point x="40" y="496" type="curve" smooth="yes"/>
      <point x="33" y="514"/>
      <point x="31" y="533"/>
      <point x="30" y="548" type="curve" smooth="yes"/>
      <point x="29" y="571"/>
      <point x="35" y="597"/>
      <point x="42" y="609" type="curve" smooth="yes"/>
      <point x="59" y="643"/>
      <point x="68" y="657"/>
      <point x="101" y="619" type="curve" smooth="yes"/>
      <point x="112" y="606"/>
      <point x="140" y="602"/>
      <point x="157" y="601" type="curve" smooth="yes"/>
      <point x="198" y="600"/>
      <point x="224" y="585"/>
      <point x="242" y="564" type="curve" smooth="yes"/>
      <point x="257" y="545"/>
      <point x="265" y="508"/>
      <point x="263" y="475" type="curve" smooth="yes"/>
      <point x="260" y="434"/>
      <point x="249" y="427"/>
      <point x="238" y="431" type="curve" smooth="yes"/>
      <point x="226" y="435"/>
      <point x="211" y="437"/>
      <point x="194" y="434" type="curve" smooth="yes"/>
      <point x="179" y="432"/>
      <point x="172" y="419"/>
      <point x="171" y="402" type="curve" smooth="yes"/>
      <point x="168" y="344"/>
      <point x="197" y="308"/>
      <point x="211" y="277" type="curve" smooth="yes"/>
      <point x="234" y="227"/>
      <point x="245" y="168"/>
      <point x="241" y="100" type="curve"/>
      <point x="331" y="166" type="line"/>
      <point x="343" y="179"/>
      <point x="350" y="179"/>
      <point x="356" y="205" type="curve" smooth="yes"/>
      <point x="366" y="240"/>
      <point x="379" y="281"/>
      <point x="392" y="309" type="curve" smooth="yes"/>
      <point x="418" y="370"/>
      <point x="417" y="362"/>
      <point x="430" y="402" type="curve" smooth="yes"/>
      <point x="434" y="417"/>
      <point x="431" y="424"/>
      <point x="415" y="427" type="curve" smooth="yes"/>
      <point x="396" y="432"/>
      <point x="375" y="438"/>
      <point x="351" y="461" type="curve" smooth="yes"/>
      <point x="339" y="472"/>
      <point x="329" y="488"/>
      <point x="323" y="505" type="curve" smooth="yes"/>
      <point x="317" y="523"/>
      <point x="317" y="543"/>
      <point x="317" y="558" type="curve" smooth="yes"/>
      <point x="319" y="581"/>
      <point x="327" y="607"/>
      <point x="335" y="618" type="curve" smooth="yes"/>
      <point x="355" y="650"/>
      <point x="367" y="653"/>
      <point x="386" y="624" type="curve" smooth="yes"/>
      <point x="399" y="604"/>
      <point x="428" y="598"/>
      <point x="441" y="594" type="curve" smooth="yes"/>
      <point x="483" y="584"/>
      <point x="509" y="561"/>
      <point x="517" y="526" type="curve" smooth="yes"/>
      <point x="522" y="501"/>
      <point x="526" y="458"/>
      <point x="486" y="431" type="curve" smooth="yes"/>
      <point x="476" y="425"/>
      <point x="465" y="412"/>
      <point x="462" y="402" type="curve" smooth="yes"/>
      <point x="436" y="323"/>
      <point x="429" y="299"/>
      <point x="416" y="232" type="curve" smooth="yes"/>
      <point x="403" y="162"/>
      <point x="399" y="111"/>
      <point x="394" y="38" type="curve" smooth="yes"/>
      <point x="392" y="21"/>
      <point x="389" y="11"/>
      <point x="372" y="-2" type="curve" smooth="yes"/>
      <point x="81" y="-219" type="line" smooth="yes"/>
      <point x="74" y="-224"/>
      <point x="62" y="-224"/>
      <point x="62" y="-209" type="curve" smooth="yes"/>
      <point x="72" y="-51" type="line" smooth="yes"/>
      <point x="73" y="-33"/>
      <point x="76" y="-23"/>
      <point x="93" y="-11" type="curve" smooth="yes"/>
      <point x="192" y="61" type="line" smooth="yes"/>
      <point x="205" y="71"/>
      <point x="212" y="82"/>
      <point x="210" y="100" type="curve" smooth="yes"/>
      <point x="203" y="166"/>
      <point x="172" y="195"/>
      <point x="155" y="236" type="curve" smooth="yes"/>
      <point x="128" y="302"/>
      <point x="129" y="354"/>
    </contour>
  </outline>
</glyph>
<glyph name="afii57685" format="2">
  <advance width="537"/>
  <unicode hex="05E5"/>
  <outline>
    <contour>
      <point x="190" y="134" type="curve"/>
      <point x="189.89" y="134.5" type="line"/>
      <point x="205.89" y="50.5"/>
      <point x="223.89" y="-86.5"/>
      <point x="221.89" y="-127.5" type="curve" smooth="yes"/>
      <point x="218.89" y="-169.5"/>
      <point x="203.89" y="-210.5"/>
      <point x="172.89" y="-262.5" type="curve" smooth="yes"/>
      <point x="155.89" y="-289.5"/>
      <point x="131.89" y="-282.5"/>
      <point x="133.89" y="-256.5" type="curve" smooth="yes"/>
      <point x="136.89" y="-191.5"/>
      <point x="137.89" y="-112.5"/>
      <point x="135.89" y="-23.5" type="curve" smooth="yes"/>
      <point x="132.89" y="75.5"/>
      <point x="119.89" y="131.5"/>
      <point x="117.89" y="231.5" type="curve" smooth="yes"/>
      <point x="116.89" y="298.5"/>
      <point x="122.89" y="346.5"/>
      <point x="152.89" y="414.5" type="curve" smooth="yes"/>
      <point x="155.89" y="421.5"/>
      <point x="155.89" y="429.5"/>
      <point x="144.89" y="430.5" type="curve" smooth="yes"/>
      <point x="123.89" y="433.5"/>
      <point x="108.89" y="434.5"/>
      <point x="85.8896" y="445.5" type="curve" smooth="yes"/>
      <point x="66.8896" y="454.5"/>
      <point x="47.8896" y="473.5"/>
      <point x="40.8896" y="492.5" type="curve" smooth="yes"/>
      <point x="32.8896" y="513.5"/>
      <point x="30.8896" y="532.5"/>
      <point x="31.8896" y="547.5" type="curve" smooth="yes"/>
      <point x="31.8896" y="570.5"/>
      <point x="39.8896" y="603.5"/>
      <point x="45.8896" y="614.5" type="curve" smooth="yes"/>
      <point x="64.8896" y="647.5"/>
      <point x="75.8896" y="658.5"/>
      <point x="95.8896" y="626.5" type="curve" smooth="yes"/>
      <point x="108.89" y="606.5"/>
      <point x="134.89" y="603.5"/>
      <point x="148.89" y="600.5" type="curve" smooth="yes"/>
      <point x="177.89" y="595.5"/>
      <point x="193.89" y="588.5"/>
      <point x="211.89" y="573.5" type="curve" smooth="yes"/>
      <point x="246.89" y="542.5"/>
      <point x="236.89" y="474.5"/>
      <point x="207.89" y="442.5" type="curve" smooth="yes"/>
      <point x="194.89" y="428.5"/>
      <point x="188.89" y="415.5"/>
      <point x="188.89" y="415.5" type="curve"/>
      <point x="173.89" y="379.5"/>
      <point x="166.89" y="356.5"/>
      <point x="163.89" y="323.5" type="curve" smooth="yes"/>
      <point x="162.89" y="296.5"/>
      <point x="164.89" y="262.5"/>
      <point x="171.89" y="228.5" type="curve" smooth="yes"/>
      <point x="174.89" y="212.5"/>
      <point x="182.89" y="207.5"/>
      <point x="192.89" y="220.5" type="curve" smooth="yes"/>
      <point x="361.89" y="432.5" type="line" smooth="yes"/>
      <point x="367.89" y="439.5"/>
      <point x="370.89" y="444.5"/>
      <point x="358.89" y="454.5" type="curve" smooth="yes"/>
      <point x="333.89" y="474.5"/>
      <point x="323.89" y="498.5"/>
      <point x="322.89" y="531.5" type="curve" smooth="yes"/>
      <point x="321.89" y="568.5"/>
      <point x="332.89" y="598.5"/>
      <point x="359.89" y="628.5" type="curve" smooth="yes"/>
      <point x="378.89" y="651.5"/>
      <point x="397.89" y="651.5"/>
      <point x="405.89" y="628.5" type="curve" smooth="yes"/>
      <point x="409.89" y="620.5"/>
      <point x="423.89" y="600.5"/>
      <point x="443.89" y="588.5" type="curve" smooth="yes"/>
      <point x="477.89" y="569.5"/>
      <point x="501.89" y="539.5"/>
      <point x="503.89" y="503.5" type="curve" smooth="yes"/>
      <point x="505.89" y="465.5"/>
      <point x="495.89" y="441.5"/>
      <point x="472.89" y="412.5" type="curve" smooth="yes"/>
      <point x="461.89" y="397.5"/>
      <point x="443.89" y="379.5"/>
      <point x="432.89" y="392.5" type="curve" smooth="yes"/>
      <point x="425.89" y="400.5"/>
      <point x="420.89" y="406.5"/>
      <point x="412.89" y="412.5" type="curve" smooth="yes"/>
      <point x="407.89" y="416.5"/>
      <point x="399.89" y="419.5"/>
      <point x="390.89" y="408.5" type="curve" smooth="yes"/>
      <point x="201.89" y="176.5" type="line"/>
      <point x="193.89" y="161.5"/>
      <point x="187.89" y="144.5"/>
    </contour>
  </outline>
</glyph>
<glyph name="afii57686" format="2">
  <advance width="561"/>
  <unicode hex="05E6"/>
  <outline>
    <contour>
      <point x="54" y="0" type="line" smooth="yes"/>
      <point x="38" y="0"/>
      <point x="33" y="9"/>
      <point x="38" y="22" type="curve" smooth="yes"/>
      <point x="86" y="139" type="line" smooth="yes"/>
      <point x="92" y="153"/>
      <point x="101" y="160"/>
      <point x="117" y="160" type="curve" smooth="yes"/>
      <point x="406" y="160" type="line" smooth="yes"/>
      <point x="421" y="160"/>
      <point x="420" y="166"/>
      <point x="413" y="172" type="curve" smooth="yes"/>
      <point x="228" y="312" type="line" smooth="yes"/>
      <point x="220" y="319"/>
      <point x="216" y="326"/>
      <point x="215" y="336" type="curve" smooth="yes"/>
      <point x="211" y="368"/>
      <point x="209" y="388"/>
      <point x="204" y="402" type="curve" smooth="yes"/>
      <point x="200" y="415"/>
      <point x="198" y="426"/>
      <point x="176" y="428" type="curve" smooth="yes"/>
      <point x="136" y="431"/>
      <point x="97" y="436"/>
      <point x="70" y="461" type="curve" smooth="yes"/>
      <point x="59" y="472"/>
      <point x="49" y="488"/>
      <point x="44" y="505" type="curve" smooth="yes"/>
      <point x="38" y="523"/>
      <point x="37" y="543"/>
      <point x="38" y="558" type="curve" smooth="yes"/>
      <point x="39" y="581"/>
      <point x="48" y="607"/>
      <point x="55" y="618" type="curve" smooth="yes"/>
      <point x="75" y="650"/>
      <point x="86" y="653"/>
      <point x="105" y="624" type="curve" smooth="yes"/>
      <point x="118" y="604"/>
      <point x="145" y="598"/>
      <point x="158" y="594" type="curve" smooth="yes"/>
      <point x="199" y="584"/>
      <point x="223" y="560"/>
      <point x="232" y="526" type="curve" smooth="yes"/>
      <point x="240" y="495"/>
      <point x="232" y="468"/>
      <point x="228" y="442" type="curve" smooth="yes"/>
      <point x="226" y="433"/>
      <point x="228" y="424"/>
      <point x="234" y="414" type="curve" smooth="yes"/>
      <point x="239" y="405"/>
      <point x="326" y="339"/>
      <point x="326" y="339" type="curve" smooth="yes"/>
      <point x="335" y="331"/>
      <point x="342" y="336"/>
      <point x="346" y="343" type="curve" smooth="yes"/>
      <point x="382" y="428" type="line" smooth="yes"/>
      <point x="386" y="435"/>
      <point x="390" y="441"/>
      <point x="377" y="451" type="curve" smooth="yes"/>
      <point x="353" y="470"/>
      <point x="336" y="498"/>
      <point x="336" y="531" type="curve" smooth="yes"/>
      <point x="335" y="568"/>
      <point x="345" y="598"/>
      <point x="372" y="628" type="curve" smooth="yes"/>
      <point x="392" y="651"/>
      <point x="410" y="651"/>
      <point x="419" y="628" type="curve" smooth="yes"/>
      <point x="422" y="620"/>
      <point x="436" y="600"/>
      <point x="456" y="588" type="curve" smooth="yes"/>
      <point x="490" y="569"/>
      <point x="514" y="539"/>
      <point x="516" y="503" type="curve" smooth="yes"/>
      <point x="518" y="465"/>
      <point x="508" y="441"/>
      <point x="486" y="412" type="curve" smooth="yes"/>
      <point x="474" y="397"/>
      <point x="456" y="379"/>
      <point x="446" y="392" type="curve" smooth="yes"/>
      <point x="438" y="400"/>
      <point x="438" y="403"/>
      <point x="431" y="409" type="curve" smooth="yes"/>
      <point x="426" y="414"/>
      <point x="417" y="421"/>
      <point x="412" y="408" type="curve" smooth="yes"/>
      <point x="374" y="321" type="line" smooth="yes"/>
      <point x="368" y="309"/>
      <point x="370" y="304"/>
      <point x="380" y="296" type="curve" smooth="yes"/>
      <point x="486" y="212" type="line" smooth="yes"/>
      <point x="520" y="185"/>
      <point x="535" y="121"/>
      <point x="512" y="69" type="curve" smooth="yes"/>
      <point x="490" y="21"/>
      <point x="448" y="0"/>
      <point x="397" y="0" type="curve" smooth="yes"/>
    </contour>
  </outline>
</glyph>
<glyph name="afii57717" format="2">
  <advance width="532"/>
  <unicode hex="05F1"/>
  <outline>
    <contour>
      <point x="229" y="419" type="curve" smooth="yes"/>
      <point x="223" y="390"/>
      <point x="206" y="357"/>
      <point x="182" y="324" type="curve" smooth="yes"/>
      <point x="173" y="312"/>
      <point x="161" y="295"/>
      <point x="150" y="304" type="curve" smooth="yes"/>
      <point x="137" y="314"/>
      <point x="146" y="335"/>
      <point x="151" y="344" type="curve" smooth="yes"/>
      <point x="166" y="371"/>
      <point x="178" y="390"/>
      <point x="162" y="415" type="curve" smooth="yes"/>
      <point x="148" y="436"/>
      <point x="127" y="433"/>
      <point x="100" y="445" type="curve" smooth="yes"/>
      <point x="76" y="456"/>
      <point x="53" y="473"/>
      <point x="38" y="508" type="curve" smooth="yes"/>
      <point x="29" y="530"/>
      <point x="28" y="562"/>
      <point x="30" y="579" type="curve" smooth="yes"/>
      <point x="33" y="604"/>
      <point x="39" y="619"/>
      <point x="49" y="631" type="curve" smooth="yes"/>
      <point x="69" y="654"/>
      <point x="79" y="646"/>
      <point x="91" y="626" type="curve" smooth="yes"/>
      <point x="104" y="606"/>
      <point x="118" y="598"/>
      <point x="145" y="592" type="curve" smooth="yes"/>
      <point x="170" y="587"/>
      <point x="200" y="571"/>
      <point x="216" y="541" type="curve" smooth="yes"/>
      <point x="239" y="500"/>
      <point x="237" y="458"/>
    </contour>
    <contour>
      <point x="487" y="523" type="curve" smooth="yes"/>
      <point x="494" y="485"/>
      <point x="486" y="448"/>
      <point x="462" y="418" type="curve" smooth="yes"/>
      <point x="458" y="412"/>
      <point x="451" y="401"/>
      <point x="453" y="390" type="curve" smooth="yes"/>
      <point x="464" y="322"/>
      <point x="480" y="210"/>
      <point x="486" y="155" type="curve" smooth="yes"/>
      <point x="489" y="133"/>
      <point x="490" y="77"/>
      <point x="462" y="20" type="curve" smooth="yes"/>
      <point x="445" y="-17"/>
      <point x="409" y="-10"/>
      <point x="410" y="25" type="curve" smooth="yes"/>
      <point x="410" y="25"/>
      <point x="419" y="268"/>
      <point x="421" y="392" type="curve" smooth="yes"/>
      <point x="422" y="406"/>
      <point x="413" y="419"/>
      <point x="400" y="423" type="curve" smooth="yes"/>
      <point x="384" y="427"/>
      <point x="357" y="435"/>
      <point x="341" y="446" type="curve" smooth="yes"/>
      <point x="324" y="458"/>
      <point x="310" y="476"/>
      <point x="304" y="496" type="curve" smooth="yes"/>
      <point x="298" y="515"/>
      <point x="297" y="543"/>
      <point x="298" y="558" type="curve" smooth="yes"/>
      <point x="299" y="581"/>
      <point x="307" y="607"/>
      <point x="314" y="618" type="curve" smooth="yes"/>
      <point x="334" y="650"/>
      <point x="346" y="653"/>
      <point x="364" y="624" type="curve" smooth="yes"/>
      <point x="377" y="604"/>
      <point x="404" y="598"/>
      <point x="418" y="594" type="curve" smooth="yes"/>
      <point x="459" y="584"/>
      <point x="481" y="554"/>
    </contour>
  </outline>
</glyph>
<glyph name="afii57718" format="2">
  <advance width="532"/>
  <unicode hex="05F2"/>
  <outline>
    <contour>
      <point x="0" y="0" type="line" smooth="yes"/>
    </contour>
    <contour>
      <point x="466" y="419" type="curve" smooth="yes"/>
      <point x="460" y="390"/>
      <point x="443" y="357"/>
      <point x="419" y="324" type="curve" smooth="yes"/>
      <point x="410" y="312"/>
      <point x="398" y="295"/>
      <point x="387" y="304" type="curve" smooth="yes"/>
      <point x="374" y="314"/>
      <point x="383" y="335"/>
      <point x="388" y="344" type="curve" smooth="yes"/>
      <point x="403" y="371"/>
      <point x="415" y="390"/>
      <point x="399" y="415" type="curve" smooth="yes"/>
      <point x="385" y="436"/>
      <point x="364" y="433"/>
      <point x="337" y="445" type="curve" smooth="yes"/>
      <point x="313" y="456"/>
      <point x="290" y="473"/>
      <point x="275" y="508" type="curve" smooth="yes"/>
      <point x="266" y="530"/>
      <point x="265" y="562"/>
      <point x="267" y="579" type="curve" smooth="yes"/>
      <point x="270" y="604"/>
      <point x="276" y="619"/>
      <point x="286" y="631" type="curve" smooth="yes"/>
      <point x="306" y="654"/>
      <point x="316" y="646"/>
      <point x="328" y="626" type="curve" smooth="yes"/>
      <point x="341" y="606"/>
      <point x="355" y="598"/>
      <point x="382" y="592" type="curve" smooth="yes"/>
      <point x="407" y="587"/>
      <point x="437" y="571"/>
      <point x="453" y="541" type="curve" smooth="yes"/>
      <point x="476" y="500"/>
      <point x="474" y="458"/>
    </contour>
    <contour>
      <point x="200" y="419" type="curve" smooth="yes"/>
      <point x="194" y="390"/>
      <point x="177" y="357"/>
      <point x="153" y="324" type="curve" smooth="yes"/>
      <point x="144" y="312"/>
      <point x="132" y="295"/>
      <point x="121" y="304" type="curve" smooth="yes"/>
      <point x="108" y="314"/>
      <point x="117" y="335"/>
      <point x="122" y="344" type="curve" smooth="yes"/>
      <point x="137" y="371"/>
      <point x="149" y="390"/>
      <point x="133" y="415" type="curve" smooth="yes"/>
      <point x="119" y="436"/>
      <point x="98" y="433"/>
      <point x="71" y="445" type="curve" smooth="yes"/>
      <point x="47" y="456"/>
      <point x="24" y="473"/>
      <point x="9" y="508" type="curve" smooth="yes"/>
      <point x="0" y="530"/>
      <point x="-1" y="562"/>
      <point x="1" y="579" type="curve" smooth="yes"/>
      <point x="4" y="604"/>
      <point x="10" y="619"/>
      <point x="20" y="631" type="curve" smooth="yes"/>
      <point x="40" y="654"/>
      <point x="50" y="646"/>
      <point x="62" y="626" type="curve" smooth="yes"/>
      <point x="75" y="606"/>
      <point x="89" y="598"/>
      <point x="116" y="592" type="curve" smooth="yes"/>
      <point x="141" y="587"/>
      <point x="171" y="571"/>
      <point x="187" y="541" type="curve" smooth="yes"/>
      <point x="210" y="500"/>
      <point x="208" y="458"/>
    </contour>
  </outline>
</glyph>
<glyph name="SF110000" format="2">
  <advance width="610"/>
  <unicode hex="2502"/>
  <outline>
    <contour>
      <point x="365" y="960" type="line"/>
      <point x="365" y="-300" type="line"/>
      <point x="245" y="-300" type="line"/>
      <point x="245" y="960" type="line"/>
    </contour>
  </outline>
</glyph>
<glyph name="afii57705" format="2">
  <advance width="532"/>
  <unicode hex="FB1F"/>
  <outline>
    <contour>
      <point x="143" y="200" type="line" smooth="yes"/>
      <point x="143" y="208"/>
      <point x="150" y="215"/>
      <point x="158" y="215" type="curve" smooth="yes"/>
      <point x="358" y="215" type="line" smooth="yes"/>
      <point x="366" y="215"/>
      <point x="373" y="208"/>
      <point x="373" y="200" type="curve" smooth="yes"/>
      <point x="373" y="175" type="line" smooth="yes"/>
      <point x="373" y="167"/>
      <point x="366" y="160"/>
      <point x="358" y="160" type="curve" smooth="yes"/>
      <point x="158" y="160" type="line" smooth="yes"/>
      <point x="150" y="160"/>
      <point x="143" y="167"/>
      <point x="143" y="175" type="curve" smooth="yes"/>
    </contour>
    <contour>
      <point x="229" y="419" type="curve" smooth="yes"/>
      <point x="223" y="390"/>
      <point x="206" y="357"/>
      <point x="182" y="324" type="curve" smooth="yes"/>
      <point x="173" y="312"/>
      <point x="161" y="295"/>
      <point x="150" y="304" type="curve" smooth="yes"/>
      <point x="137" y="314"/>
      <point x="146" y="335"/>
      <point x="151" y="344" type="curve" smooth="yes"/>
      <point x="166" y="371"/>
      <point x="178" y="390"/>
      <point x="162" y="415" type="curve" smooth="yes"/>
      <point x="148" y="436"/>
      <point x="127" y="433"/>
      <point x="100" y="445" type="curve" smooth="yes"/>
      <point x="76" y="456"/>
      <point x="53" y="473"/>
      <point x="38" y="508" type="curve" smooth="yes"/>
      <point x="29" y="530"/>
      <point x="28" y="562"/>
      <point x="30" y="579" type="curve" smooth="yes"/>
      <point x="33" y="604"/>
      <point x="39" y="619"/>
      <point x="49" y="631" type="curve" smooth="yes"/>
      <point x="69" y="654"/>
      <point x="79" y="646"/>
      <point x="91" y="626" type="curve" smooth="yes"/>
      <point x="104" y="606"/>
      <point x="118" y="598"/>
      <point x="145" y="592" type="curve" smooth="yes"/>
      <point x="170" y="587"/>
      <point x="200" y="571"/>
      <point x="216" y="541" type="curve" smooth="yes"/>
      <point x="239" y="500"/>
      <point x="237" y="458"/>
    </contour>
    <contour>
      <point x="495" y="419" type="curve" smooth="yes"/>
      <point x="489" y="390"/>
      <point x="472" y="357"/>
      <point x="448" y="324" type="curve" smooth="yes"/>
      <point x="439" y="312"/>
      <point x="427" y="295"/>
      <point x="416" y="304" type="curve" smooth="yes"/>
      <point x="403" y="314"/>
      <point x="412" y="335"/>
      <point x="417" y="344" type="curve" smooth="yes"/>
      <point x="432" y="371"/>
      <point x="444" y="390"/>
      <point x="428" y="415" type="curve" smooth="yes"/>
      <point x="414" y="436"/>
      <point x="393" y="433"/>
      <point x="366" y="445" type="curve" smooth="yes"/>
      <point x="342" y="456"/>
      <point x="319" y="473"/>
      <point x="304" y="508" type="curve" smooth="yes"/>
      <point x="295" y="530"/>
      <point x="294" y="562"/>
      <point x="296" y="579" type="curve" smooth="yes"/>
      <point x="299" y="604"/>
      <point x="305" y="619"/>
      <point x="315" y="631" type="curve" smooth="yes"/>
      <point x="335" y="654"/>
      <point x="345" y="646"/>
      <point x="357" y="626" type="curve" smooth="yes"/>
      <point x="370" y="606"/>
      <point x="384" y="598"/>
      <point x="411" y="592" type="curve" smooth="yes"/>
      <point x="436" y="587"/>
      <point x="466" y="571"/>
      <point x="482" y="541" type="curve" smooth="yes"/>
      <point x="505" y="500"/>
      <point x="503" y="458"/>
    </contour>
  </outline>
</glyph>
<glyph name="uniFB20" format="2">
  <advance width="552"/>
  <unicode hex="FB20"/>
  <outline>
    <contour>
      <point x="349" y="0" type="curve" smooth="yes"/>
      <point x="59" y="0" type="line" smooth="yes"/>
      <point x="43" y="0"/>
      <point x="37" y="9"/>
      <point x="43" y="22" type="curve" smooth="yes"/>
      <point x="91" y="139" type="line" smooth="yes"/>
      <point x="96" y="153"/>
      <point x="106" y="160"/>
      <point x="122" y="160" type="curve" smooth="yes"/>
      <point x="196" y="160" type="line" smooth="yes"/>
      <point x="227" y="160"/>
      <point x="236" y="182"/>
      <point x="216" y="206" type="curve" smooth="yes"/>
      <point x="190" y="239"/>
      <point x="169" y="240"/>
      <point x="148" y="281" type="curve" smooth="yes"/>
      <point x="126" y="320"/>
      <point x="132" y="372"/>
      <point x="138" y="404" type="curve" smooth="yes"/>
      <point x="142" y="424"/>
      <point x="134" y="435"/>
      <point x="123" y="437" type="curve" smooth="yes"/>
      <point x="102" y="439"/>
      <point x="85" y="446"/>
      <point x="71" y="456" type="curve" smooth="yes"/>
      <point x="58" y="465"/>
      <point x="47" y="479"/>
      <point x="40" y="496" type="curve" smooth="yes"/>
      <point x="33" y="514"/>
      <point x="31" y="533"/>
      <point x="30" y="548" type="curve" smooth="yes"/>
      <point x="29" y="571"/>
      <point x="35" y="597"/>
      <point x="42" y="609" type="curve" smooth="yes"/>
      <point x="59" y="643"/>
      <point x="68" y="657"/>
      <point x="101" y="619" type="curve" smooth="yes"/>
      <point x="112" y="606"/>
      <point x="140" y="602"/>
      <point x="157" y="601" type="curve" smooth="yes"/>
      <point x="198" y="600"/>
      <point x="224" y="585"/>
      <point x="242" y="564" type="curve" smooth="yes"/>
      <point x="257" y="545"/>
      <point x="265" y="508"/>
      <point x="263" y="475" type="curve" smooth="yes"/>
      <point x="260" y="434"/>
      <point x="249" y="427"/>
      <point x="238" y="431" type="curve" smooth="yes"/>
      <point x="226" y="435"/>
      <point x="211" y="437"/>
      <point x="194" y="434" type="curve" smooth="yes"/>
      <point x="179" y="432"/>
      <point x="171" y="419"/>
      <point x="171" y="402" type="curve" smooth="yes"/>
      <point x="170" y="356"/>
      <point x="190" y="326"/>
      <point x="217" y="302" type="curve" smooth="yes"/>
      <point x="248" y="274"/>
      <point x="268" y="221"/>
      <point x="258" y="178" type="curve" smooth="yes"/>
      <point x="255" y="168"/>
      <point x="259" y="160"/>
      <point x="270" y="160" type="curve" smooth="yes"/>
      <point x="332" y="160" type="line" smooth="yes"/>
      <point x="360" y="160"/>
      <point x="364" y="182"/>
      <point x="369" y="206" type="curve" smooth="yes"/>
      <point x="376" y="241"/>
      <point x="386" y="278"/>
      <point x="397" y="309" type="curve" smooth="yes"/>
      <point x="406" y="333"/>
      <point x="417" y="362"/>
      <point x="430" y="402" type="curve" smooth="yes"/>
      <point x="434" y="417"/>
      <point x="431" y="424"/>
      <point x="415" y="427" type="curve" smooth="yes"/>
      <point x="396" y="432"/>
      <point x="375" y="438"/>
      <point x="351" y="461" type="curve" smooth="yes"/>
      <point x="339" y="472"/>
      <point x="329" y="488"/>
      <point x="323" y="505" type="curve" smooth="yes"/>
      <point x="317" y="523"/>
      <point x="317" y="543"/>
      <point x="317" y="558" type="curve" smooth="yes"/>
      <point x="319" y="581"/>
      <point x="327" y="607"/>
      <point x="335" y="618" type="curve" smooth="yes"/>
      <point x="355" y="650"/>
      <point x="367" y="653"/>
      <point x="386" y="624" type="curve" smooth="yes"/>
      <point x="399" y="604"/>
      <point x="428" y="598"/>
      <point x="441" y="594" type="curve" smooth="yes"/>
      <point x="483" y="584"/>
      <point x="509" y="561"/>
      <point x="517" y="526" type="curve" smooth="yes"/>
      <point x="522" y="501"/>
      <point x="526" y="458"/>
      <point x="486" y="431" type="curve" smooth="yes"/>
      <point x="476" y="425"/>
      <point x="465" y="412"/>
      <point x="462" y="402" type="curve" smooth="yes"/>
      <point x="446" y="352"/>
      <point x="432" y="292"/>
      <point x="426" y="236" type="curve" smooth="yes"/>
      <point x="421" y="193"/>
      <point x="420" y="116"/>
      <point x="417" y="73" type="curve" smooth="yes"/>
      <point x="414" y="22"/>
      <point x="394" y="0"/>
    </contour>
  </outline>
</glyph>
<glyph name="afii57695" format="2">
  <advance width="716"/>
  <unicode hex="FB2B"/>
  <outline>
    <contour>
      <point x="172" y="705" type="curve"/>
      <point x="171.5" y="705" type="line"/>
      <point x="192.5" y="705"/>
      <point x="209.5" y="688"/>
      <point x="209.5" y="668" type="curve" smooth="yes"/>
      <point x="209.5" y="647"/>
      <point x="192.5" y="630"/>
      <point x="171.5" y="630" type="curve" smooth="yes"/>
      <point x="151.5" y="630"/>
      <point x="134.5" y="647"/>
      <point x="134.5" y="668" type="curve" smooth="yes"/>
      <point x="134.5" y="688"/>
      <point x="151.5" y="705"/>
    </contour>
    <contour>
      <point x="491.5" y="227" type="curve" smooth="yes"/>
      <point x="529.5" y="319"/>
      <point x="583.5" y="399"/>
      <point x="583.5" y="399" type="curve" smooth="yes"/>
      <point x="587.5" y="406"/>
      <point x="589.5" y="414"/>
      <point x="581.5" y="420" type="curve" smooth="yes"/>
      <point x="563.5" y="434"/>
      <point x="516.5" y="460"/>
      <point x="505.5" y="506" type="curve" smooth="yes"/>
      <point x="493.5" y="555"/>
      <point x="506.5" y="591"/>
      <point x="538.5" y="628" type="curve" smooth="yes"/>
      <point x="557.5" y="651"/>
      <point x="576.5" y="651"/>
      <point x="585.5" y="628" type="curve" smooth="yes"/>
      <point x="588.5" y="620"/>
      <point x="603.5" y="600"/>
      <point x="623.5" y="588" type="curve" smooth="yes"/>
      <point x="656.5" y="569"/>
      <point x="680.5" y="539"/>
      <point x="682.5" y="503" type="curve" smooth="yes"/>
      <point x="684.5" y="465"/>
      <point x="675.5" y="441"/>
      <point x="652.5" y="412" type="curve" smooth="yes"/>
      <point x="640.5" y="397"/>
      <point x="634.5" y="393"/>
      <point x="629.5" y="394" type="curve" smooth="yes"/>
      <point x="625.5" y="395"/>
      <point x="621.5" y="400"/>
      <point x="615.5" y="390" type="curve" smooth="yes"/>
      <point x="579.5" y="341"/>
      <point x="549.5" y="265"/>
      <point x="519.5" y="149" type="curve" smooth="yes"/>
      <point x="503.5" y="88"/>
      <point x="489.5" y="0"/>
      <point x="376.5" y="0" type="curve" smooth="yes"/>
      <point x="113.5" y="0" type="line" smooth="yes"/>
      <point x="103.5" y="0"/>
      <point x="98.5" y="5"/>
      <point x="98.5" y="15" type="curve" smooth="yes"/>
      <point x="98.5" y="37"/>
      <point x="97.5" y="79"/>
      <point x="94.5" y="108" type="curve" smooth="yes"/>
      <point x="85.5" y="208"/>
      <point x="79.5" y="196"/>
      <point x="78.5" y="268" type="curve" smooth="yes"/>
      <point x="79.5" y="308"/>
      <point x="94.5" y="353"/>
      <point x="106.5" y="392" type="curve" smooth="yes"/>
      <point x="112.5" y="410"/>
      <point x="109.5" y="423"/>
      <point x="99.5" y="426" type="curve" smooth="yes"/>
      <point x="81.5" y="433"/>
      <point x="67.5" y="443"/>
      <point x="56.5" y="455" type="curve" smooth="yes"/>
      <point x="46.5" y="466"/>
      <point x="38.5" y="482"/>
      <point x="35.5" y="499" type="curve" smooth="yes"/>
      <point x="31.5" y="518"/>
      <point x="32.5" y="537"/>
      <point x="34.5" y="552" type="curve" smooth="yes"/>
      <point x="37.5" y="575"/>
      <point x="47.5" y="604"/>
      <point x="54.5" y="615" type="curve" smooth="yes"/>
      <point x="75.5" y="650"/>
      <point x="89.5" y="655"/>
      <point x="107.5" y="625" type="curve" smooth="yes"/>
      <point x="115.5" y="611"/>
      <point x="131.5" y="597"/>
      <point x="155.5" y="591" type="curve" smooth="yes"/>
      <point x="191.5" y="581"/>
      <point x="212.5" y="558"/>
      <point x="224.5" y="531" type="curve" smooth="yes"/>
      <point x="234.5" y="510"/>
      <point x="236.5" y="472"/>
      <point x="229.5" y="440" type="curve" smooth="yes"/>
      <point x="220.5" y="400"/>
      <point x="210.5" y="395"/>
      <point x="200.5" y="401" type="curve" smooth="yes"/>
      <point x="190.5" y="407"/>
      <point x="178.5" y="412"/>
      <point x="161.5" y="412" type="curve" smooth="yes"/>
      <point x="148.5" y="412"/>
      <point x="141.5" y="401"/>
      <point x="136.5" y="384" type="curve" smooth="yes"/>
      <point x="121.5" y="335"/>
      <point x="118.5" y="328"/>
      <point x="125.5" y="292" type="curve" smooth="yes"/>
      <point x="133.5" y="249"/>
      <point x="153.5" y="225"/>
      <point x="162.5" y="175" type="curve" smooth="yes"/>
      <point x="163.5" y="166"/>
      <point x="168.5" y="160"/>
      <point x="179.5" y="160" type="curve" smooth="yes"/>
      <point x="185.5" y="160" type="line" smooth="yes"/>
      <point x="195.5" y="160"/>
      <point x="201.5" y="165"/>
      <point x="205.5" y="174" type="curve" smooth="yes"/>
      <point x="317.5" y="432" type="line" smooth="yes"/>
      <point x="320.5" y="440"/>
      <point x="322.5" y="447"/>
      <point x="313.5" y="454" type="curve" smooth="yes"/>
      <point x="288.5" y="473"/>
      <point x="278.5" y="498"/>
      <point x="277.5" y="531" type="curve" smooth="yes"/>
      <point x="276.5" y="568"/>
      <point x="287.5" y="598"/>
      <point x="314.5" y="628" type="curve" smooth="yes"/>
      <point x="333.5" y="651"/>
      <point x="352.5" y="651"/>
      <point x="361.5" y="628" type="curve" smooth="yes"/>
      <point x="363.5" y="620"/>
      <point x="378.5" y="600"/>
      <point x="398.5" y="588" type="curve" smooth="yes"/>
      <point x="432.5" y="569"/>
      <point x="455.5" y="539"/>
      <point x="457.5" y="503" type="curve" smooth="yes"/>
      <point x="460.5" y="465"/>
      <point x="450.5" y="441"/>
      <point x="427.5" y="412" type="curve" smooth="yes"/>
      <point x="416.5" y="397"/>
      <point x="398.5" y="379"/>
      <point x="387.5" y="392" type="curve" smooth="yes"/>
      <point x="380.5" y="400"/>
      <point x="375.5" y="406"/>
      <point x="367.5" y="412" type="curve" smooth="yes"/>
      <point x="361.5" y="416"/>
      <point x="351.5" y="423"/>
      <point x="345.5" y="408" type="curve" smooth="yes"/>
      <point x="246.5" y="174" type="line" smooth="yes"/>
      <point x="242.5" y="163"/>
      <point x="244.5" y="160"/>
      <point x="256.5" y="160" type="curve" smooth="yes"/>
      <point x="376.5" y="160" type="line" smooth="yes"/>
      <point x="426.5" y="160"/>
      <point x="472.5" y="181"/>
    </contour>
  </outline>
</glyph>
<glyph name="uniFB33" format="2">
  <advance width="523"/>
  <unicode hex="FB33"/>
  <outline>
    <contour>
      <point x="288" y="338" type="curve"/>
      <point x="288" y="338.5" type="line"/>
      <point x="309" y="338.5"/>
      <point x="326" y="321.5"/>
      <point x="326" y="300.5" type="curve" smooth="yes"/>
      <point x="326" y="279.5"/>
      <point x="309" y="262.5"/>
      <point x="288" y="262.5" type="curve" smooth="yes"/>
      <point x="267" y="262.5"/>
      <point x="250" y="279.5"/>
      <point x="250" y="300.5" type="curve" smooth="yes"/>
      <point x="250" y="321.5"/>
      <point x="267" y="338.5"/>
    </contour>
    <contour>
      <point x="173" y="600.5" type="curve" smooth="yes"/>
      <point x="417" y="600.5" type="line" smooth="yes"/>
      <point x="477" y="600.5"/>
      <point x="484" y="563.5"/>
      <point x="485" y="523.5" type="curve" smooth="yes"/>
      <point x="487" y="486.5"/>
      <point x="481" y="448.5"/>
      <point x="436" y="441.5" type="curve" smooth="yes"/>
      <point x="422" y="439.5"/>
      <point x="423" y="426.5"/>
      <point x="423" y="426.5" type="curve"/>
      <point x="430" y="377.5"/>
      <point x="455" y="210.5"/>
      <point x="461" y="155.5" type="curve" smooth="yes"/>
      <point x="464" y="133.5"/>
      <point x="465" y="77.5"/>
      <point x="437" y="20.5" type="curve" smooth="yes"/>
      <point x="420" y="-16.5"/>
      <point x="384" y="-9.5"/>
      <point x="385" y="25.5" type="curve" smooth="yes"/>
      <point x="392" y="426.5" type="line" smooth="yes"/>
      <point x="391" y="440.5"/>
      <point x="384" y="440.5"/>
      <point x="376" y="440.5" type="curve" smooth="yes"/>
      <point x="108" y="440.5" type="line" smooth="yes"/>
      <point x="63" y="440.5"/>
      <point x="38" y="492.5"/>
      <point x="34" y="514.5" type="curve" smooth="yes"/>
      <point x="27" y="548.5"/>
      <point x="36" y="597.5"/>
      <point x="52" y="628.5" type="curve" smooth="yes"/>
      <point x="62" y="650.5"/>
      <point x="74" y="649.5"/>
      <point x="82" y="631.5" type="curve" smooth="yes"/>
      <point x="100" y="596.5"/>
      <point x="135" y="600.5"/>
    </contour>
  </outline>
</glyph>
<glyph name="uniFB34" format="2">
  <advance width="561"/>
  <unicode hex="FB34"/>
  <outline>
    <contour>
      <point x="274" y="338" type="curve"/>
      <point x="274" y="338.5" type="line"/>
      <point x="295" y="338.5"/>
      <point x="312" y="321.5"/>
      <point x="312" y="300.5" type="curve" smooth="yes"/>
      <point x="312" y="279.5"/>
      <point x="295" y="262.5"/>
      <point x="274" y="262.5" type="curve" smooth="yes"/>
      <point x="253" y="262.5"/>
      <point x="236" y="279.5"/>
      <point x="236" y="300.5" type="curve" smooth="yes"/>
      <point x="236" y="321.5"/>
      <point x="253" y="338.5"/>
    </contour>
    <contour>
      <point x="182" y="600.5" type="curve" smooth="yes"/>
      <point x="452.5" y="600.5" type="line" smooth="yes"/>
      <point x="512.5" y="600.5"/>
      <point x="519.5" y="563.5"/>
      <point x="520.5" y="523.5" type="curve" smooth="yes"/>
      <point x="521.5" y="486.5"/>
      <point x="515.5" y="448.5"/>
      <point x="470.5" y="441.5" type="curve" smooth="yes"/>
      <point x="457.5" y="439.5"/>
      <point x="458.5" y="426.5"/>
      <point x="458.5" y="426.5" type="curve"/>
      <point x="465.5" y="377.5"/>
      <point x="502.5" y="210.5"/>
      <point x="508.5" y="155.5" type="curve" smooth="yes"/>
      <point x="511.5" y="133.5"/>
      <point x="512.5" y="77.5"/>
      <point x="484.5" y="20.5" type="curve" smooth="yes"/>
      <point x="467.5" y="-16.5"/>
      <point x="431.5" y="-9.5"/>
      <point x="432.5" y="25.5" type="curve" smooth="yes"/>
      <point x="426.5" y="426.5" type="line" smooth="yes"/>
      <point x="426.5" y="440.5"/>
      <point x="419.5" y="440.5"/>
      <point x="411.5" y="440.5" type="curve" smooth="yes"/>
      <point x="117.5" y="440.5" type="line" smooth="yes"/>
      <point x="71.5" y="440.5"/>
      <point x="46.5" y="492.5"/>
      <point x="42.5" y="514.5" type="curve" smooth="yes"/>
      <point x="35.5" y="548.5"/>
      <point x="45.5" y="597.5"/>
      <point x="60.5" y="628.5" type="curve" smooth="yes"/>
      <point x="71.5" y="650.5"/>
      <point x="82.5" y="649.5"/>
      <point x="91.5" y="631.5" type="curve" smooth="yes"/>
      <point x="108.5" y="596.5"/>
      <point x="143.5" y="600.5"/>
    </contour>
    <contour>
      <point x="47.5" y="27.5" type="curve" smooth="yes"/>
      <point x="55.5" y="113.5"/>
      <point x="49.5" y="174.5"/>
      <point x="58.5" y="239.5" type="curve" smooth="yes"/>
      <point x="63.5" y="274.5"/>
      <point x="79.5" y="304.5"/>
      <point x="98.5" y="325.5" type="curve" smooth="yes"/>
      <point x="125.5" y="355.5"/>
      <point x="139.5" y="329.5"/>
      <point x="134.5" y="309.5" type="curve" smooth="yes"/>
      <point x="128.5" y="285.5"/>
      <point x="131.5" y="259.5"/>
      <point x="133.5" y="229.5" type="curve" smooth="yes"/>
      <point x="135.5" y="162.5"/>
      <point x="133.5" y="102.5"/>
      <point x="95.5" y="26.5" type="curve" smooth="yes"/>
      <point x="73.5" y="-17.5"/>
      <point x="44.5" y="-13.5"/>
    </contour>
  </outline>
</glyph>
<glyph name="uniFB36" format="2">
  <advance width="291"/>
  <unicode hex="FB36"/>
  <outline>
    <contour>
      <point x="52" y="338" type="curve"/>
      <point x="52" y="338.5" type="line"/>
      <point x="73" y="338.5"/>
      <point x="90" y="321.5"/>
      <point x="90" y="300.5" type="curve" smooth="yes"/>
      <point x="90" y="279.5"/>
      <point x="73" y="262.5"/>
      <point x="52" y="262.5" type="curve" smooth="yes"/>
      <point x="31" y="262.5"/>
      <point x="14" y="279.5"/>
      <point x="14" y="300.5" type="curve" smooth="yes"/>
      <point x="14" y="321.5"/>
      <point x="31" y="338.5"/>
    </contour>
    <contour>
      <point x="99" y="292.5" type="curve" smooth="yes"/>
      <point x="106" y="343.5"/>
      <point x="116" y="365.5"/>
      <point x="126" y="406.5" type="curve" smooth="yes"/>
      <point x="131" y="424.5"/>
      <point x="125" y="436.5"/>
      <point x="113" y="439.5" type="curve" smooth="yes"/>
      <point x="94" y="444.5"/>
      <point x="77" y="452.5"/>
      <point x="64" y="463.5" type="curve" smooth="yes"/>
      <point x="51" y="473.5"/>
      <point x="42" y="488.5"/>
      <point x="36" y="505.5" type="curve" smooth="yes"/>
      <point x="31" y="523.5"/>
      <point x="30" y="543.5"/>
      <point x="31" y="558.5" type="curve" smooth="yes"/>
      <point x="32" y="581.5"/>
      <point x="41" y="607.5"/>
      <point x="48" y="618.5" type="curve" smooth="yes"/>
      <point x="68" y="650.5"/>
      <point x="77" y="654.5"/>
      <point x="104" y="623.5" type="curve" smooth="yes"/>
      <point x="114" y="610.5"/>
      <point x="145" y="602.5"/>
      <point x="162" y="600.5" type="curve" smooth="yes"/>
      <point x="203" y="595.5"/>
      <point x="228" y="578.5"/>
      <point x="244" y="555.5" type="curve" smooth="yes"/>
      <point x="257" y="536.5"/>
      <point x="261" y="498.5"/>
      <point x="256" y="465.5" type="curve" smooth="yes"/>
      <point x="250" y="424.5"/>
      <point x="239" y="418.5"/>
      <point x="228" y="423.5" type="curve" smooth="yes"/>
      <point x="216" y="428.5"/>
      <point x="202" y="432.5"/>
      <point x="184" y="430.5" type="curve" smooth="yes"/>
      <point x="169" y="430.5"/>
      <point x="161" y="418.5"/>
      <point x="158" y="400.5" type="curve" smooth="yes"/>
      <point x="150" y="341.5"/>
      <point x="166" y="320.5"/>
      <point x="178" y="270.5" type="curve" smooth="yes"/>
      <point x="190" y="222.5"/>
      <point x="195" y="191.5"/>
      <point x="185" y="118.5" type="curve" smooth="yes"/>
      <point x="180" y="82.5"/>
      <point x="174" y="59.5"/>
      <point x="163" y="26.5" type="curve" smooth="yes"/>
      <point x="150" y="-11.5"/>
      <point x="124" y="-26.5"/>
      <point x="124" y="34.5" type="curve" smooth="yes"/>
      <point x="124" y="72.5"/>
      <point x="120" y="106.5"/>
      <point x="115" y="136.5" type="curve" smooth="yes"/>
      <point x="104" y="196.5"/>
      <point x="91" y="231.5"/>
    </contour>
  </outline>
</glyph>
<glyph name="uniFB38" format="2">
  <advance width="576"/>
  <unicode hex="FB38"/>
  <outline>
    <contour>
      <point x="358" y="314" type="curve" smooth="yes"/>
      <point x="379" y="314"/>
      <point x="396" y="297"/>
      <point x="396" y="276" type="curve" smooth="yes"/>
      <point x="396" y="255"/>
      <point x="379" y="238"/>
      <point x="358" y="238" type="curve" smooth="yes"/>
      <point x="337" y="238"/>
      <point x="320" y="255"/>
      <point x="320" y="276" type="curve" smooth="yes"/>
      <point x="320" y="297"/>
      <point x="337" y="314"/>
    </contour>
    <contour>
      <point x="102" y="440" type="curve" smooth="yes"/>
      <point x="85" y="445"/>
      <point x="79" y="448"/>
      <point x="66" y="461" type="curve" smooth="yes"/>
      <point x="54" y="472"/>
      <point x="44" y="488"/>
      <point x="38" y="505" type="curve" smooth="yes"/>
      <point x="33" y="523"/>
      <point x="32" y="543"/>
      <point x="33" y="558" type="curve" smooth="yes"/>
      <point x="34" y="581"/>
      <point x="43" y="607"/>
      <point x="50" y="618" type="curve" smooth="yes"/>
      <point x="70" y="650"/>
      <point x="81" y="653"/>
      <point x="100" y="624" type="curve" smooth="yes"/>
      <point x="112" y="604"/>
      <point x="140" y="598"/>
      <point x="154" y="594" type="curve" smooth="yes"/>
      <point x="181" y="587"/>
      <point x="203" y="573"/>
      <point x="215" y="554" type="curve" smooth="yes"/>
      <point x="229" y="535"/>
      <point x="233" y="498"/>
      <point x="228" y="465" type="curve" smooth="yes"/>
      <point x="222" y="424"/>
      <point x="206" y="407"/>
      <point x="195" y="412" type="curve" smooth="yes"/>
      <point x="183" y="416"/>
      <point x="180" y="420"/>
      <point x="164" y="421" type="curve" smooth="yes"/>
      <point x="154" y="422"/>
      <point x="147" y="415"/>
      <point x="144" y="408" type="curve" smooth="yes"/>
      <point x="128" y="374"/>
      <point x="122" y="346"/>
      <point x="122" y="310" type="curve" smooth="yes"/>
      <point x="123" y="262"/>
      <point x="126" y="233"/>
      <point x="135" y="180" type="curve"/>
      <point x="135" y="180"/>
      <point x="139" y="160"/>
      <point x="160" y="160" type="curve" smooth="yes"/>
      <point x="498" y="160" type="line"/>
      <point x="498" y="160"/>
      <point x="518" y="161"/>
      <point x="521" y="181" type="curve" smooth="yes"/>
      <point x="530" y="263"/>
      <point x="521" y="328"/>
      <point x="476" y="382" type="curve" smooth="yes"/>
      <point x="444" y="420"/>
      <point x="388" y="452"/>
      <point x="349" y="430" type="curve" smooth="yes"/>
      <point x="319" y="413"/>
      <point x="298" y="354"/>
      <point x="286" y="284" type="curve" smooth="yes"/>
      <point x="284" y="270"/>
      <point x="278" y="263"/>
      <point x="268" y="265" type="curve" smooth="yes"/>
      <point x="260" y="266"/>
      <point x="254" y="274"/>
      <point x="256" y="287" type="curve" smooth="yes"/>
      <point x="267" y="399"/>
      <point x="291" y="506"/>
      <point x="323" y="596" type="curve"/>
      <point x="323" y="596"/>
      <point x="329" y="616"/>
      <point x="351" y="614" type="curve" smooth="yes"/>
      <point x="446" y="605"/>
      <point x="510" y="529"/>
      <point x="544" y="383" type="curve" smooth="yes"/>
      <point x="572" y="263"/>
      <point x="551" y="124"/>
      <point x="526" y="24" type="curve"/>
      <point x="526" y="24"/>
      <point x="522" y="0"/>
      <point x="496" y="0" type="curve" smooth="yes"/>
      <point x="106" y="0" type="line"/>
      <point x="106" y="0"/>
      <point x="84" y="1"/>
      <point x="83" y="20" type="curve" smooth="yes"/>
      <point x="77" y="117"/>
      <point x="77" y="157"/>
      <point x="73" y="250" type="curve" smooth="yes"/>
      <point x="71" y="299"/>
      <point x="93" y="369"/>
      <point x="113" y="412" type="curve" smooth="yes"/>
      <point x="118" y="421"/>
      <point x="119" y="435"/>
    </contour>
  </outline>
</glyph>
<glyph name="uniFB39" format="2">
  <advance width="266"/>
  <unicode hex="FB39"/>
  <outline>
    <contour>
      <point x="82" y="408" type="curve"/>
      <point x="82" y="408.5" type="line"/>
      <point x="103" y="408.5"/>
      <point x="120" y="391.5"/>
      <point x="120" y="370.5" type="curve" smooth="yes"/>
      <point x="120" y="349.5"/>
      <point x="103" y="332.5"/>
      <point x="82" y="332.5" type="curve" smooth="yes"/>
      <point x="61" y="332.5"/>
      <point x="44" y="349.5"/>
      <point x="44" y="370.5" type="curve" smooth="yes"/>
      <point x="44" y="391.5"/>
      <point x="61" y="408.5"/>
    </contour>
    <contour>
      <point x="229" y="419.5" type="curve" smooth="yes"/>
      <point x="223" y="390.5"/>
      <point x="206" y="357.5"/>
      <point x="182" y="324.5" type="curve" smooth="yes"/>
      <point x="173" y="312.5"/>
      <point x="161" y="295.5"/>
      <point x="150" y="304.5" type="curve" smooth="yes"/>
      <point x="137" y="314.5"/>
      <point x="146" y="335.5"/>
      <point x="151" y="344.5" type="curve" smooth="yes"/>
      <point x="166" y="371.5"/>
      <point x="178" y="390.5"/>
      <point x="162" y="415.5" type="curve" smooth="yes"/>
      <point x="148" y="436.5"/>
      <point x="127" y="433.5"/>
      <point x="100" y="445.5" type="curve" smooth="yes"/>
      <point x="76" y="456.5"/>
      <point x="53" y="473.5"/>
      <point x="38" y="508.5" type="curve" smooth="yes"/>
      <point x="29" y="530.5"/>
      <point x="28" y="562.5"/>
      <point x="30" y="579.5" type="curve" smooth="yes"/>
      <point x="33" y="604.5"/>
      <point x="39" y="619.5"/>
      <point x="49" y="631.5" type="curve" smooth="yes"/>
      <point x="69" y="654.5"/>
      <point x="79" y="646.5"/>
      <point x="91" y="626.5" type="curve" smooth="yes"/>
      <point x="104" y="606.5"/>
      <point x="118" y="598.5"/>
      <point x="145" y="592.5" type="curve" smooth="yes"/>
      <point x="170" y="587.5"/>
      <point x="200" y="571.5"/>
      <point x="216" y="541.5" type="curve" smooth="yes"/>
      <point x="239" y="500.5"/>
      <point x="237" y="458.5"/>
    </contour>
  </outline>
</glyph>
<glyph name="uniFB3C" format="2">
  <advance width="510"/>
  <unicode hex="FB3C"/>
  <outline>
    <contour>
      <point x="242" y="364" type="curve"/>
      <point x="242" y="364.5" type="line"/>
      <point x="263" y="364.5"/>
      <point x="280" y="347.5"/>
      <point x="280" y="326.5" type="curve" smooth="yes"/>
      <point x="280" y="305.5"/>
      <point x="263" y="288.5"/>
      <point x="242" y="288.5" type="curve" smooth="yes"/>
      <point x="221" y="288.5"/>
      <point x="204" y="305.5"/>
      <point x="204" y="326.5" type="curve" smooth="yes"/>
      <point x="204" y="347.5"/>
      <point x="221" y="364.5"/>
    </contour>
    <contour>
      <point x="41" y="874.5" type="curve" smooth="yes"/>
      <point x="43" y="890.5"/>
      <point x="46" y="902.5"/>
      <point x="66" y="899.5" type="curve" smooth="yes"/>
      <point x="117" y="891.5"/>
      <point x="142" y="833.5"/>
      <point x="142" y="812.5" type="curve" smooth="yes"/>
      <point x="142" y="787.5"/>
      <point x="99" y="756.5"/>
      <point x="87" y="737.5" type="curve" smooth="yes"/>
      <point x="75" y="718.5"/>
      <point x="77" y="698.5"/>
      <point x="77" y="652.5" type="curve" smooth="yes"/>
      <point x="77" y="620.5"/>
      <point x="72" y="600.5"/>
      <point x="116" y="600.5" type="curve" smooth="yes"/>
      <point x="386" y="600.5" type="line" smooth="yes"/>
      <point x="430" y="600.5"/>
      <point x="463" y="586.5"/>
      <point x="470" y="544.5" type="curve" smooth="yes"/>
      <point x="481" y="480.5"/>
      <point x="475" y="443.5"/>
      <point x="475" y="386.5" type="curve" smooth="yes"/>
      <point x="475" y="319.5"/>
      <point x="409" y="268.5"/>
      <point x="345" y="209.5" type="curve" smooth="yes"/>
      <point x="327" y="193.5"/>
      <point x="294" y="155.5"/>
      <point x="284" y="101.5" type="curve" smooth="yes"/>
      <point x="280" y="82.5"/>
      <point x="295" y="71.5"/>
      <point x="295" y="48.5" type="curve" smooth="yes"/>
      <point x="295" y="20.5"/>
      <point x="282" y="-4.5"/>
      <point x="252" y="-4.5" type="curve" smooth="yes"/>
      <point x="224" y="-4.5"/>
      <point x="204" y="17.5"/>
      <point x="201" y="45.5" type="curve" smooth="yes"/>
      <point x="196" y="90.5"/>
      <point x="241" y="156.5"/>
      <point x="262" y="175.5" type="curve" smooth="yes"/>
      <point x="399" y="297.5"/>
      <point x="427" y="320.5"/>
      <point x="425" y="374.5" type="curve" smooth="yes"/>
      <point x="423" y="418.5"/>
      <point x="416" y="440.5"/>
      <point x="359" y="440.5" type="curve" smooth="yes"/>
      <point x="116" y="440.5" type="line" smooth="yes"/>
      <point x="58" y="440.5"/>
      <point x="33" y="472.5"/>
      <point x="33" y="516.5" type="curve" smooth="yes"/>
      <point x="33" y="622.5"/>
      <point x="30" y="687.5"/>
      <point x="41" y="719.5" type="curve" smooth="yes"/>
      <point x="55" y="760.5"/>
      <point x="79" y="768.5"/>
      <point x="78" y="784.5" type="curve" smooth="yes"/>
      <point x="77" y="800.5"/>
      <point x="48" y="814.5"/>
      <point x="42" y="826.5" type="curve" smooth="yes"/>
      <point x="38" y="833.5"/>
      <point x="39" y="858.5"/>
    </contour>
  </outline>
</glyph>
<glyph name="uniFB3E" format="2">
  <advance width="581"/>
  <unicode hex="FB3E"/>
  <outline>
    <contour>
      <point x="322" y="338" type="curve"/>
      <point x="322" y="338.5" type="line"/>
      <point x="343" y="338.5"/>
      <point x="360" y="321.5"/>
      <point x="360" y="300.5" type="curve" smooth="yes"/>
      <point x="360" y="279.5"/>
      <point x="343" y="262.5"/>
      <point x="322" y="262.5" type="curve" smooth="yes"/>
      <point x="301" y="262.5"/>
      <point x="284" y="279.5"/>
      <point x="284" y="300.5" type="curve" smooth="yes"/>
      <point x="284" y="321.5"/>
      <point x="301" y="338.5"/>
    </contour>
    <contour>
      <point x="101" y="378.5" type="curve"/>
      <point x="100.79" y="379" type="line"/>
      <point x="71.79" y="407"/>
      <point x="44.79" y="449"/>
      <point x="41.79" y="479" type="curve" smooth="yes"/>
      <point x="37.79" y="515"/>
      <point x="36.79" y="542"/>
      <point x="55.79" y="583" type="curve" smooth="yes"/>
      <point x="66.79" y="606"/>
      <point x="80.79" y="620"/>
      <point x="93.79" y="631" type="curve" smooth="yes"/>
      <point x="110.79" y="644"/>
      <point x="125.79" y="638"/>
      <point x="131.79" y="617" type="curve" smooth="yes"/>
      <point x="136.79" y="600"/>
      <point x="157.79" y="589"/>
      <point x="169.79" y="584" type="curve" smooth="yes"/>
      <point x="193.79" y="574"/>
      <point x="215.79" y="542"/>
      <point x="229.79" y="482" type="curve" smooth="yes"/>
      <point x="231.79" y="475"/>
      <point x="238.79" y="467"/>
      <point x="247.79" y="473" type="curve" smooth="yes"/>
      <point x="281.79" y="497"/>
      <point x="289.79" y="561"/>
      <point x="293.79" y="602" type="curve" smooth="yes"/>
      <point x="295.79" y="618"/>
      <point x="304.79" y="626"/>
      <point x="317.79" y="625" type="curve" smooth="yes"/>
      <point x="403.79" y="619"/>
      <point x="450.79" y="580"/>
      <point x="483.79" y="538" type="curve" smooth="yes"/>
      <point x="548.79" y="457"/>
      <point x="565.79" y="327"/>
      <point x="567.79" y="186" type="curve" smooth="yes"/>
      <point x="567.79" y="170"/>
      <point x="558.79" y="145"/>
      <point x="558.79" y="145" type="curve"/>
      <point x="507.79" y="22" type="line" smooth="yes"/>
      <point x="500.79" y="9"/>
      <point x="492.79" y="1"/>
      <point x="476.79" y="1" type="curve" smooth="yes"/>
      <point x="160.79" y="1" type="line" smooth="yes"/>
      <point x="144.79" y="1"/>
      <point x="138.79" y="10"/>
      <point x="144.79" y="23" type="curve" smooth="yes"/>
      <point x="192.79" y="140" type="line" smooth="yes"/>
      <point x="197.79" y="154"/>
      <point x="207.79" y="161"/>
      <point x="223.79" y="161" type="curve" smooth="yes"/>
      <point x="519.79" y="161" type="line" smooth="yes"/>
      <point x="528.79" y="161"/>
      <point x="535.79" y="168"/>
      <point x="535.79" y="177" type="curve" smooth="yes"/>
      <point x="534.79" y="227"/>
      <point x="524.79" y="324"/>
      <point x="458.79" y="389" type="curve" smooth="yes"/>
      <point x="399.79" y="447"/>
      <point x="342.79" y="450"/>
      <point x="301.79" y="450" type="curve" smooth="yes"/>
      <point x="242.79" y="450"/>
      <point x="166.79" y="408"/>
      <point x="143.79" y="355" type="curve" smooth="yes"/>
      <point x="105.79" y="266"/>
      <point x="132.79" y="190"/>
      <point x="125.79" y="108" type="curve" smooth="yes"/>
      <point x="123.79" y="79"/>
      <point x="117.79" y="56"/>
      <point x="108.79" y="34" type="curve" smooth="yes"/>
      <point x="93.79" y="-2"/>
      <point x="68.79" y="-21"/>
      <point x="59.79" y="44" type="curve" smooth="yes"/>
      <point x="53.79" y="90"/>
      <point x="50.79" y="129"/>
      <point x="58.79" y="189" type="curve" smooth="yes"/>
      <point x="66.79" y="247"/>
      <point x="87.79" y="305"/>
      <point x="107.79" y="345" type="curve" smooth="yes"/>
      <point x="113.79" y="357"/>
      <point x="110.79" y="369"/>
    </contour>
  </outline>
</glyph>
<glyph name="uniFB3F" format="2">
  <advance width="273"/>
  <unicode hex="FB3F"/>
  <outline>
    <contour>
      <point x="62" y="338" type="curve"/>
      <point x="62" y="338.5" type="line"/>
      <point x="83" y="338.5"/>
      <point x="100" y="321.5"/>
      <point x="100" y="300.5" type="curve" smooth="yes"/>
      <point x="100" y="279.5"/>
      <point x="83" y="262.5"/>
      <point x="62" y="262.5" type="curve" smooth="yes"/>
      <point x="41" y="262.5"/>
      <point x="24" y="279.5"/>
      <point x="24" y="300.5" type="curve" smooth="yes"/>
      <point x="24" y="321.5"/>
      <point x="41" y="338.5"/>
    </contour>
    <contour>
      <point x="82" y="447.5" type="curve"/>
      <point x="82" y="447.43" type="line"/>
      <point x="63" y="456.43"/>
      <point x="46" y="477.43"/>
      <point x="39" y="496.43" type="curve" smooth="yes"/>
      <point x="32" y="517.43"/>
      <point x="31" y="536.43"/>
      <point x="32" y="552.43" type="curve" smooth="yes"/>
      <point x="33" y="574.43"/>
      <point x="43" y="607.43"/>
      <point x="50" y="618.43" type="curve" smooth="yes"/>
      <point x="70" y="650.43"/>
      <point x="81" y="653.43"/>
      <point x="100" y="624.43" type="curve" smooth="yes"/>
      <point x="112" y="604.43"/>
      <point x="140" y="600.43"/>
      <point x="154" y="596.43" type="curve" smooth="yes"/>
      <point x="182" y="590.43"/>
      <point x="200" y="585.43"/>
      <point x="216" y="569.43" type="curve" smooth="yes"/>
      <point x="251" y="537.43"/>
      <point x="238" y="469.43"/>
      <point x="207" y="438.43" type="curve" smooth="yes"/>
      <point x="194" y="425.43"/>
      <point x="187" y="412.43"/>
      <point x="187" y="412.43" type="curve"/>
      <point x="171" y="377.43"/>
      <point x="159" y="354.43"/>
      <point x="155" y="322.43" type="curve" smooth="yes"/>
      <point x="150" y="276.43"/>
      <point x="159" y="213.43"/>
      <point x="168" y="160.43" type="curve" smooth="yes"/>
      <point x="181" y="83.4297"/>
      <point x="198" y="-85.5703"/>
      <point x="193" y="-131.57" type="curve" smooth="yes"/>
      <point x="188" y="-172.57"/>
      <point x="172" y="-212.57"/>
      <point x="138" y="-263.57" type="curve" smooth="yes"/>
      <point x="120" y="-289.57"/>
      <point x="97" y="-281.57"/>
      <point x="99" y="-255.57" type="curve" smooth="yes"/>
      <point x="105" y="-190.57"/>
      <point x="110" y="-112.57"/>
      <point x="111" y="-23.5703" type="curve" smooth="yes"/>
      <point x="113" y="76.4297"/>
      <point x="102" y="132.43"/>
      <point x="105" y="232.43" type="curve" smooth="yes"/>
      <point x="107" y="299.43"/>
      <point x="118" y="346.43"/>
      <point x="151" y="414.43" type="curve" smooth="yes"/>
      <point x="154" y="420.43"/>
      <point x="155" y="428.43"/>
      <point x="144" y="430.43" type="curve" smooth="yes"/>
      <point x="123" y="433.43"/>
      <point x="105" y="436.43"/>
    </contour>
  </outline>
</glyph>
<glyph name="uniFB41" format="2">
  <advance width="512"/>
  <unicode hex="FB41"/>
  <outline>
    <contour>
      <point x="274" y="338" type="curve"/>
      <point x="274" y="338.5" type="line"/>
      <point x="295" y="338.5"/>
      <point x="312" y="321.5"/>
      <point x="312" y="300.5" type="curve" smooth="yes"/>
      <point x="312" y="279.5"/>
      <point x="295" y="262.5"/>
      <point x="274" y="262.5" type="curve" smooth="yes"/>
      <point x="253" y="262.5"/>
      <point x="236" y="279.5"/>
      <point x="236" y="300.5" type="curve" smooth="yes"/>
      <point x="236" y="321.5"/>
      <point x="253" y="338.5"/>
    </contour>
    <contour>
      <point x="184" y="600.5" type="curve" smooth="yes"/>
      <point x="184.5" y="600.5" type="line" smooth="yes"/>
      <point x="233.5" y="596.5"/>
      <point x="376.5" y="612.5"/>
      <point x="432.5" y="540.5" type="curve" smooth="yes"/>
      <point x="489.5" y="467.5"/>
      <point x="490.5" y="330.5"/>
      <point x="487.5" y="186.5" type="curve" smooth="yes"/>
      <point x="486.5" y="169.5"/>
      <point x="482.5" y="150.5"/>
      <point x="475.5" y="134.5" type="curve" smooth="yes"/>
      <point x="429.5" y="22.5" type="line" smooth="yes"/>
      <point x="424.5" y="10.5"/>
      <point x="411.5" y="0.5"/>
      <point x="394.5" y="0.5" type="curve" smooth="yes"/>
      <point x="88.5" y="0.5" type="line" smooth="yes"/>
      <point x="72.5" y="0.5"/>
      <point x="63.5" y="8.5"/>
      <point x="63.5" y="25.5" type="curve" smooth="yes"/>
      <point x="62.5" y="48.5"/>
      <point x="61.5" y="82.5"/>
      <point x="59.5" y="108.5" type="curve" smooth="yes"/>
      <point x="50.5" y="208.5"/>
      <point x="47.5" y="171.5"/>
      <point x="46.5" y="243.5" type="curve" smooth="yes"/>
      <point x="45.5" y="303.5"/>
      <point x="102.5" y="416.5"/>
      <point x="126.5" y="440.5" type="curve"/>
      <point x="74.5" y="450.5"/>
      <point x="53.5" y="496.5"/>
      <point x="48.5" y="518.5" type="curve" smooth="yes"/>
      <point x="39.5" y="559.5"/>
      <point x="47.5" y="597.5"/>
      <point x="62.5" y="628.5" type="curve" smooth="yes"/>
      <point x="73.5" y="650.5"/>
      <point x="84.5" y="649.5"/>
      <point x="93.5" y="631.5" type="curve" smooth="yes"/>
      <point x="110.5" y="596.5"/>
      <point x="145.5" y="602.5"/>
    </contour>
    <contour>
      <point x="163.5" y="440.5" type="curve"/>
      <point x="125.5" y="386.5"/>
      <point x="96.5" y="340.5"/>
      <point x="98.5" y="269.5" type="curve" smooth="yes"/>
      <point x="100.5" y="235.5"/>
      <point x="101.5" y="223.5"/>
      <point x="106.5" y="185.5" type="curve" smooth="yes"/>
      <point x="109.5" y="162.5"/>
      <point x="120.5" y="160.5"/>
      <point x="134.5" y="160.5" type="curve" smooth="yes"/>
      <point x="430.5" y="160.5" type="line" smooth="yes"/>
      <point x="448.5" y="160.5"/>
      <point x="455.5" y="170.5"/>
      <point x="455.5" y="185.5" type="curve" smooth="yes"/>
      <point x="455.5" y="250.5"/>
      <point x="458.5" y="345.5"/>
      <point x="430.5" y="387.5" type="curve" smooth="yes"/>
      <point x="415.5" y="410.5"/>
      <point x="376.5" y="433.5"/>
      <point x="338.5" y="436.5" type="curve" smooth="yes"/>
      <point x="290.5" y="440.5"/>
      <point x="210.5" y="441.5"/>
    </contour>
  </outline>
</glyph>
<glyph name="uniFB43" format="2">
  <advance width="493"/>
  <unicode hex="FB43"/>
  <outline>
    <contour>
      <point x="286" y="378" type="curve"/>
      <point x="286" y="378.5" type="line"/>
      <point x="307" y="378.5"/>
      <point x="324" y="361.5"/>
      <point x="324" y="340.5" type="curve" smooth="yes"/>
      <point x="324" y="319.5"/>
      <point x="307" y="302.5"/>
      <point x="286" y="302.5" type="curve" smooth="yes"/>
      <point x="265" y="302.5"/>
      <point x="248" y="319.5"/>
      <point x="248" y="340.5" type="curve" smooth="yes"/>
      <point x="248" y="361.5"/>
      <point x="265" y="378.5"/>
    </contour>
    <contour>
      <point x="104" y="440.5" type="curve"/>
      <point x="72" y="463.5"/>
      <point x="62" y="492.5"/>
      <point x="58" y="514.5" type="curve" smooth="yes"/>
      <point x="51" y="548.5"/>
      <point x="60" y="597.5"/>
      <point x="76" y="628.5" type="curve" smooth="yes"/>
      <point x="86" y="650.5"/>
      <point x="98" y="649.5"/>
      <point x="106" y="631.5" type="curve" smooth="yes"/>
      <point x="124" y="596.5"/>
      <point x="159" y="600.5"/>
      <point x="197" y="600.5" type="curve" smooth="yes"/>
      <point x="336" y="600.5" type="line" smooth="yes"/>
      <point x="392" y="600.5"/>
      <point x="430" y="557.5"/>
      <point x="433" y="504.5" type="curve" smooth="yes"/>
      <point x="468" y="-159.5" type="line" smooth="yes"/>
      <point x="471" y="-208.5"/>
      <point x="452" y="-244.5"/>
      <point x="423" y="-269.5" type="curve" smooth="yes"/>
      <point x="405" y="-283.5"/>
      <point x="389" y="-286.5"/>
      <point x="390" y="-258.5" type="curve" smooth="yes"/>
      <point x="409" y="346.5" type="line" smooth="yes"/>
      <point x="412" y="397.5"/>
      <point x="388" y="440.5"/>
      <point x="338" y="440.5" type="curve" smooth="yes"/>
      <point x="144" y="440.5" type="line"/>
      <point x="119" y="422.5"/>
      <point x="94" y="366.5"/>
      <point x="103" y="316.5" type="curve" smooth="yes"/>
      <point x="112" y="268.5"/>
      <point x="163" y="268.5"/>
      <point x="211" y="269.5" type="curve" smooth="yes"/>
      <point x="242" y="270.5"/>
      <point x="268" y="249.5"/>
      <point x="275" y="215.5" type="curve" smooth="yes"/>
      <point x="282" y="183.5"/>
      <point x="279" y="149.5"/>
      <point x="245" y="128.5" type="curve" smooth="yes"/>
      <point x="211" y="107.5"/>
      <point x="140" y="116.5"/>
      <point x="108" y="122.5" type="curve"/>
      <point x="98" y="115.5"/>
      <point x="88" y="103.5"/>
      <point x="72" y="91.5" type="curve" smooth="yes"/>
      <point x="63" y="84.5"/>
      <point x="51" y="81.5"/>
      <point x="43" y="89.5" type="curve" smooth="yes"/>
      <point x="35" y="97.5"/>
      <point x="39" y="110.5"/>
      <point x="47" y="117.5" type="curve" smooth="yes"/>
      <point x="62" y="130.5"/>
      <point x="61" y="128.5"/>
      <point x="74" y="141.5" type="curve"/>
      <point x="35" y="199.5"/>
      <point x="36" y="253.5"/>
      <point x="40" y="294.5" type="curve" smooth="yes"/>
      <point x="46" y="356.5"/>
      <point x="73" y="415.5"/>
    </contour>
  </outline>
</glyph>
<glyph name="uniFB46" format="2">
  <advance width="561"/>
  <unicode hex="FB46"/>
  <outline>
    <contour>
      <point x="202" y="270" type="curve"/>
      <point x="202" y="270.5" type="line"/>
      <point x="223" y="270.5"/>
      <point x="240" y="253.5"/>
      <point x="240" y="232.5" type="curve" smooth="yes"/>
      <point x="240" y="211.5"/>
      <point x="223" y="194.5"/>
      <point x="202" y="194.5" type="curve" smooth="yes"/>
      <point x="181" y="194.5"/>
      <point x="164" y="211.5"/>
      <point x="164" y="232.5" type="curve" smooth="yes"/>
      <point x="164" y="253.5"/>
      <point x="181" y="270.5"/>
    </contour>
    <contour>
      <point x="54" y="0.5" type="line" smooth="yes"/>
      <point x="38" y="0.5"/>
      <point x="33" y="9.5"/>
      <point x="38" y="22.5" type="curve" smooth="yes"/>
      <point x="86" y="139.5" type="line" smooth="yes"/>
      <point x="92" y="153.5"/>
      <point x="101" y="160.5"/>
      <point x="117" y="160.5" type="curve" smooth="yes"/>
      <point x="406" y="160.5" type="line" smooth="yes"/>
      <point x="421" y="160.5"/>
      <point x="420" y="166.5"/>
      <point x="413" y="172.5" type="curve" smooth="yes"/>
      <point x="228" y="312.5" type="line" smooth="yes"/>
      <point x="220" y="319.5"/>
      <point x="216" y="326.5"/>
      <point x="215" y="336.5" type="curve" smooth="yes"/>
      <point x="211" y="368.5"/>
      <point x="209" y="388.5"/>
      <point x="204" y="402.5" type="curve" smooth="yes"/>
      <point x="200" y="415.5"/>
      <point x="198" y="426.5"/>
      <point x="176" y="428.5" type="curve" smooth="yes"/>
      <point x="136" y="431.5"/>
      <point x="97" y="436.5"/>
      <point x="70" y="461.5" type="curve" smooth="yes"/>
      <point x="59" y="472.5"/>
      <point x="49" y="488.5"/>
      <point x="44" y="505.5" type="curve" smooth="yes"/>
      <point x="38" y="523.5"/>
      <point x="37" y="543.5"/>
      <point x="38" y="558.5" type="curve" smooth="yes"/>
      <point x="39" y="581.5"/>
      <point x="48" y="607.5"/>
      <point x="55" y="618.5" type="curve" smooth="yes"/>
      <point x="75" y="650.5"/>
      <point x="86" y="653.5"/>
      <point x="105" y="624.5" type="curve" smooth="yes"/>
      <point x="118" y="604.5"/>
      <point x="145" y="598.5"/>
      <point x="158" y="594.5" type="curve" smooth="yes"/>
      <point x="199" y="584.5"/>
      <point x="223" y="560.5"/>
      <point x="232" y="526.5" type="curve" smooth="yes"/>
      <point x="240" y="495.5"/>
      <point x="232" y="468.5"/>
      <point x="228" y="442.5" type="curve" smooth="yes"/>
      <point x="226" y="433.5"/>
      <point x="228" y="424.5"/>
      <point x="234" y="414.5" type="curve" smooth="yes"/>
      <point x="239" y="405.5"/>
      <point x="326" y="339.5"/>
      <point x="326" y="339.5" type="curve" smooth="yes"/>
      <point x="335" y="331.5"/>
      <point x="342" y="336.5"/>
      <point x="346" y="343.5" type="curve" smooth="yes"/>
      <point x="382" y="428.5" type="line" smooth="yes"/>
      <point x="386" y="435.5"/>
      <point x="390" y="441.5"/>
      <point x="377" y="451.5" type="curve" smooth="yes"/>
      <point x="353" y="470.5"/>
      <point x="336" y="498.5"/>
      <point x="336" y="531.5" type="curve" smooth="yes"/>
      <point x="335" y="568.5"/>
      <point x="345" y="598.5"/>
      <point x="372" y="628.5" type="curve" smooth="yes"/>
      <point x="392" y="651.5"/>
      <point x="410" y="651.5"/>
      <point x="419" y="628.5" type="curve" smooth="yes"/>
      <point x="422" y="620.5"/>
      <point x="436" y="600.5"/>
      <point x="456" y="588.5" type="curve" smooth="yes"/>
      <point x="490" y="569.5"/>
      <point x="514" y="539.5"/>
      <point x="516" y="503.5" type="curve" smooth="yes"/>
      <point x="518" y="465.5"/>
      <point x="508" y="441.5"/>
      <point x="486" y="412.5" type="curve" smooth="yes"/>
      <point x="474" y="397.5"/>
      <point x="456" y="379.5"/>
      <point x="446" y="392.5" type="curve" smooth="yes"/>
      <point x="438" y="400.5"/>
      <point x="438" y="403.5"/>
      <point x="431" y="409.5" type="curve" smooth="yes"/>
      <point x="426" y="414.5"/>
      <point x="417" y="421.5"/>
      <point x="412" y="408.5" type="curve" smooth="yes"/>
      <point x="374" y="321.5" type="line" smooth="yes"/>
      <point x="368" y="309.5"/>
      <point x="370" y="304.5"/>
      <point x="380" y="296.5" type="curve" smooth="yes"/>
      <point x="486" y="212.5" type="line" smooth="yes"/>
      <point x="520" y="185.5"/>
      <point x="535" y="121.5"/>
      <point x="512" y="69.5" type="curve" smooth="yes"/>
      <point x="490" y="21.5"/>
      <point x="448" y="0.5"/>
      <point x="397" y="0.5" type="curve" smooth="yes"/>
    </contour>
  </outline>
</glyph>
<glyph name="uniFB49" format="2">
  <advance width="716"/>
  <unicode hex="FB49"/>
  <outline>
    <contour>
      <point x="0" y="0" type="line" smooth="yes"/>
    </contour>
    <contour>
      <point x="369" y="322" type="curve"/>
      <point x="369" y="322.5" type="line"/>
      <point x="390" y="322.5"/>
      <point x="407" y="305.5"/>
      <point x="407" y="284.5" type="curve" smooth="yes"/>
      <point x="407" y="263.5"/>
      <point x="390" y="246.5"/>
      <point x="369" y="246.5" type="curve" smooth="yes"/>
      <point x="348" y="246.5"/>
      <point x="331" y="263.5"/>
      <point x="331" y="284.5" type="curve" smooth="yes"/>
      <point x="331" y="305.5"/>
      <point x="348" y="322.5"/>
    </contour>
    <contour>
      <point x="459" y="226.5" type="curve" smooth="yes"/>
      <point x="497" y="318.5"/>
      <point x="551" y="398.5"/>
      <point x="551" y="398.5" type="curve" smooth="yes"/>
      <point x="555" y="405.5"/>
      <point x="557" y="413.5"/>
      <point x="549" y="419.5" type="curve" smooth="yes"/>
      <point x="531" y="433.5"/>
      <point x="484" y="459.5"/>
      <point x="473" y="505.5" type="curve" smooth="yes"/>
      <point x="461" y="554.5"/>
      <point x="474" y="590.5"/>
      <point x="506" y="627.5" type="curve" smooth="yes"/>
      <point x="525" y="650.5"/>
      <point x="544" y="650.5"/>
      <point x="553" y="627.5" type="curve" smooth="yes"/>
      <point x="556" y="619.5"/>
      <point x="571" y="599.5"/>
      <point x="591" y="587.5" type="curve" smooth="yes"/>
      <point x="624" y="568.5"/>
      <point x="648" y="538.5"/>
      <point x="650" y="502.5" type="curve" smooth="yes"/>
      <point x="652" y="464.5"/>
      <point x="643" y="440.5"/>
      <point x="620" y="411.5" type="curve" smooth="yes"/>
      <point x="608" y="396.5"/>
      <point x="602" y="392.5"/>
      <point x="597" y="393.5" type="curve" smooth="yes"/>
      <point x="593" y="394.5"/>
      <point x="589" y="399.5"/>
      <point x="583" y="389.5" type="curve" smooth="yes"/>
      <point x="547" y="340.5"/>
      <point x="517" y="264.5"/>
      <point x="487" y="148.5" type="curve" smooth="yes"/>
      <point x="471" y="87.5"/>
      <point x="457" y="-0.5"/>
      <point x="344" y="-0.5" type="curve" smooth="yes"/>
      <point x="81" y="-0.5" type="line" smooth="yes"/>
      <point x="71" y="-0.5"/>
      <point x="66" y="4.5"/>
      <point x="66" y="14.5" type="curve" smooth="yes"/>
      <point x="66" y="36.5"/>
      <point x="65" y="78.5"/>
      <point x="62" y="107.5" type="curve" smooth="yes"/>
      <point x="53" y="207.5"/>
      <point x="47" y="195.5"/>
      <point x="46" y="267.5" type="curve" smooth="yes"/>
      <point x="47" y="307.5"/>
      <point x="62" y="352.5"/>
      <point x="74" y="391.5" type="curve" smooth="yes"/>
      <point x="80" y="409.5"/>
      <point x="77" y="422.5"/>
      <point x="67" y="425.5" type="curve" smooth="yes"/>
      <point x="49" y="432.5"/>
      <point x="35" y="442.5"/>
      <point x="24" y="454.5" type="curve" smooth="yes"/>
      <point x="14" y="465.5"/>
      <point x="6" y="481.5"/>
      <point x="3" y="498.5" type="curve" smooth="yes"/>
      <point x="-1" y="517.5"/>
      <point x="0" y="536.5"/>
      <point x="2" y="551.5" type="curve" smooth="yes"/>
      <point x="5" y="574.5"/>
      <point x="15" y="603.5"/>
      <point x="22" y="614.5" type="curve" smooth="yes"/>
      <point x="43" y="649.5"/>
      <point x="57" y="654.5"/>
      <point x="75" y="624.5" type="curve" smooth="yes"/>
      <point x="83" y="610.5"/>
      <point x="99" y="596.5"/>
      <point x="123" y="590.5" type="curve" smooth="yes"/>
      <point x="159" y="580.5"/>
      <point x="180" y="557.5"/>
      <point x="192" y="530.5" type="curve" smooth="yes"/>
      <point x="202" y="509.5"/>
      <point x="204" y="471.5"/>
      <point x="197" y="439.5" type="curve" smooth="yes"/>
      <point x="188" y="399.5"/>
      <point x="178" y="394.5"/>
      <point x="168" y="400.5" type="curve" smooth="yes"/>
      <point x="158" y="406.5"/>
      <point x="146" y="411.5"/>
      <point x="129" y="411.5" type="curve" smooth="yes"/>
      <point x="116" y="411.5"/>
      <point x="109" y="400.5"/>
      <point x="104" y="383.5" type="curve" smooth="yes"/>
      <point x="89" y="334.5"/>
      <point x="86" y="327.5"/>
      <point x="93" y="291.5" type="curve" smooth="yes"/>
      <point x="101" y="248.5"/>
      <point x="121" y="224.5"/>
      <point x="130" y="174.5" type="curve" smooth="yes"/>
      <point x="131" y="165.5"/>
      <point x="136" y="159.5"/>
      <point x="147" y="159.5" type="curve" smooth="yes"/>
      <point x="153" y="159.5" type="line" smooth="yes"/>
      <point x="163" y="159.5"/>
      <point x="169" y="164.5"/>
      <point x="173" y="173.5" type="curve" smooth="yes"/>
      <point x="285" y="431.5" type="line" smooth="yes"/>
      <point x="288" y="439.5"/>
      <point x="290" y="446.5"/>
      <point x="281" y="453.5" type="curve" smooth="yes"/>
      <point x="256" y="472.5"/>
      <point x="246" y="497.5"/>
      <point x="245" y="530.5" type="curve" smooth="yes"/>
      <point x="244" y="567.5"/>
      <point x="255" y="597.5"/>
      <point x="282" y="627.5" type="curve" smooth="yes"/>
      <point x="301" y="650.5"/>
      <point x="320" y="650.5"/>
      <point x="329" y="627.5" type="curve" smooth="yes"/>
      <point x="331" y="619.5"/>
      <point x="346" y="599.5"/>
      <point x="366" y="587.5" type="curve" smooth="yes"/>
      <point x="400" y="568.5"/>
      <point x="423" y="538.5"/>
      <point x="425" y="502.5" type="curve" smooth="yes"/>
      <point x="428" y="464.5"/>
      <point x="418" y="440.5"/>
      <point x="395" y="411.5" type="curve" smooth="yes"/>
      <point x="384" y="396.5"/>
      <point x="366" y="378.5"/>
      <point x="355" y="391.5" type="curve" smooth="yes"/>
      <point x="348" y="399.5"/>
      <point x="343" y="405.5"/>
      <point x="335" y="411.5" type="curve" smooth="yes"/>
      <point x="329" y="415.5"/>
      <point x="319" y="422.5"/>
      <point x="313" y="407.5" type="curve" smooth="yes"/>
      <point x="214" y="173.5" type="line" smooth="yes"/>
      <point x="210" y="162.5"/>
      <point x="212" y="159.5"/>
      <point x="224" y="159.5" type="curve" smooth="yes"/>
      <point x="344" y="159.5" type="line" smooth="yes"/>
      <point x="394" y="159.5"/>
      <point x="440" y="180.5"/>
    </contour>
  </outline>
</glyph>
<glyph name="uniFB4A" format="2">
  <advance width="571"/>
  <unicode hex="FB4A"/>
  <outline>
    <contour>
      <point x="318" y="338" type="curve"/>
      <point x="318" y="338.5" type="line"/>
      <point x="339" y="338.5"/>
      <point x="356" y="321.5"/>
      <point x="356" y="300.5" type="curve" smooth="yes"/>
      <point x="356" y="279.5"/>
      <point x="339" y="262.5"/>
      <point x="318" y="262.5" type="curve" smooth="yes"/>
      <point x="297" y="262.5"/>
      <point x="280" y="279.5"/>
      <point x="280" y="300.5" type="curve" smooth="yes"/>
      <point x="280" y="321.5"/>
      <point x="297" y="338.5"/>
    </contour>
    <contour>
      <point x="131" y="448.5" type="curve"/>
      <point x="130.67" y="448.5" type="line"/>
      <point x="100.67" y="462.5"/>
      <point x="88.6699" y="496.5"/>
      <point x="85.6699" y="514.5" type="curve" smooth="yes"/>
      <point x="79.6699" y="548.5"/>
      <point x="88.6699" y="597.5"/>
      <point x="103.67" y="628.5" type="curve" smooth="yes"/>
      <point x="114.67" y="650.5"/>
      <point x="125.67" y="649.5"/>
      <point x="134.67" y="631.5" type="curve" smooth="yes"/>
      <point x="151.67" y="596.5"/>
      <point x="186.67" y="600.5"/>
      <point x="225.67" y="600.5" type="curve" smooth="yes"/>
      <point x="374.67" y="600.5" type="line" smooth="yes"/>
      <point x="462.67" y="600.5"/>
      <point x="508.67" y="539.5"/>
      <point x="520.67" y="440.5" type="curve" smooth="yes"/>
      <point x="528.67" y="372.5"/>
      <point x="533.67" y="208.5"/>
      <point x="538.67" y="154.5" type="curve" smooth="yes"/>
      <point x="540.67" y="132.5"/>
      <point x="544.67" y="72.5"/>
      <point x="525.67" y="20.5" type="curve" smooth="yes"/>
      <point x="511.67" y="-18.5"/>
      <point x="480.67" y="-7.5"/>
      <point x="482.67" y="26.5" type="curve" smooth="yes"/>
      <point x="482.67" y="26.5"/>
      <point x="487.67" y="215.5"/>
      <point x="495.67" y="344.5" type="curve" smooth="yes"/>
      <point x="495.67" y="394.5"/>
      <point x="457.67" y="440.5"/>
      <point x="399.67" y="440.5" type="curve" smooth="yes"/>
      <point x="167.67" y="440.5" type="line"/>
      <point x="158.67" y="425.5"/>
      <point x="151.67" y="414.5"/>
      <point x="145.67" y="397.5" type="curve" smooth="yes"/>
      <point x="126.67" y="347.5"/>
      <point x="132.67" y="293.5"/>
      <point x="163.67" y="240.5" type="curve" smooth="yes"/>
      <point x="188.67" y="197.5"/>
      <point x="214.67" y="140.5"/>
      <point x="199.67" y="76.5" type="curve" smooth="yes"/>
      <point x="193.67" y="54.5"/>
      <point x="175.67" y="0.5"/>
      <point x="126.67" y="0.5" type="curve" smooth="yes"/>
      <point x="26.6699" y="0.5" type="line" smooth="yes"/>
      <point x="10.6699" y="0.5"/>
      <point x="4.66992" y="9.5"/>
      <point x="10.6699" y="22.5" type="curve" smooth="yes"/>
      <point x="58.6699" y="139.5" type="line" smooth="yes"/>
      <point x="63.6699" y="153.5"/>
      <point x="73.6699" y="160.5"/>
      <point x="89.6699" y="160.5" type="curve" smooth="yes"/>
      <point x="93.6699" y="160.5"/>
      <point x="100.67" y="161.5"/>
      <point x="105.67" y="167.5" type="curve" smooth="yes"/>
      <point x="115.67" y="180.5"/>
      <point x="71.6699" y="225.5"/>
      <point x="78.6699" y="304.5" type="curve" smooth="yes"/>
      <point x="83.6699" y="364.5"/>
      <point x="110.67" y="426.5"/>
    </contour>
  </outline>
</glyph>
<glyph name="uniFB4D" format="2">
  <advance width="501"/>
  <unicode hex="FB4D"/>
  <outline>
    <contour>
      <point x="155" y="694" type="line" smooth="yes"/>
      <point x="155" y="702"/>
      <point x="162" y="709"/>
      <point x="170" y="709" type="curve" smooth="yes"/>
      <point x="340" y="709" type="line" smooth="yes"/>
      <point x="348" y="709"/>
      <point x="355" y="702"/>
      <point x="355" y="694" type="curve" smooth="yes"/>
      <point x="355" y="669" type="line" smooth="yes"/>
      <point x="355" y="661"/>
      <point x="348" y="654"/>
      <point x="340" y="654" type="curve" smooth="yes"/>
      <point x="170" y="654" type="line" smooth="yes"/>
      <point x="162" y="654"/>
      <point x="155" y="661"/>
      <point x="155" y="669" type="curve" smooth="yes"/>
    </contour>
    <contour>
      <point x="479" y="185" type="curve"/>
      <point x="479.23" y="185" type="line"/>
      <point x="478.23" y="162"/>
      <point x="470.23" y="144"/>
      <point x="470.23" y="144" type="curve"/>
      <point x="412.23" y="21" type="line" smooth="yes"/>
      <point x="405.23" y="8"/>
      <point x="397.23" y="0"/>
      <point x="381.23" y="0" type="curve" smooth="yes"/>
      <point x="36.2305" y="0" type="line" smooth="yes"/>
      <point x="20.2305" y="0"/>
      <point x="14.2305" y="9"/>
      <point x="20.2305" y="22" type="curve" smooth="yes"/>
      <point x="68.2305" y="139" type="line" smooth="yes"/>
      <point x="73.2305" y="153"/>
      <point x="82.2305" y="160"/>
      <point x="98.2305" y="160" type="curve" smooth="yes"/>
      <point x="435.23" y="160" type="line" smooth="yes"/>
      <point x="444.23" y="160"/>
      <point x="451.23" y="161"/>
      <point x="451.23" y="176" type="curve" smooth="yes"/>
      <point x="453.23" y="242"/>
      <point x="444.23" y="292"/>
      <point x="427.23" y="333" type="curve" smooth="yes"/>
      <point x="411.23" y="372"/>
      <point x="380.23" y="404"/>
      <point x="346.23" y="421" type="curve" smooth="yes"/>
      <point x="279.23" y="454"/>
      <point x="178.23" y="432"/>
      <point x="129.23" y="446" type="curve" smooth="yes"/>
      <point x="72.2305" y="462"/>
      <point x="65.2305" y="496"/>
      <point x="60.2305" y="518" type="curve" smooth="yes"/>
      <point x="51.2305" y="559"/>
      <point x="59.2305" y="597"/>
      <point x="74.2305" y="628" type="curve" smooth="yes"/>
      <point x="85.2305" y="650"/>
      <point x="96.2305" y="649"/>
      <point x="105.23" y="631" type="curve" smooth="yes"/>
      <point x="122.23" y="596"/>
      <point x="157.23" y="602"/>
      <point x="196.23" y="600" type="curve" smooth="yes"/>
      <point x="245.23" y="596"/>
      <point x="365.23" y="604"/>
      <point x="421.23" y="532" type="curve" smooth="yes"/>
      <point x="477.23" y="460"/>
      <point x="483.23" y="328"/>
    </contour>
  </outline>
</glyph>
